<svg id="Слой_1" data-name="Слой 1" xmlns="http://www.w3.org/2000/svg" viewBox="0 0 10.38 12.97"><defs><style>.cls-1{fill:#9eaec6;}</style></defs><path class="cls-1" d="M298.07,414.29a5.27,5.27,0,0,0-5.18,5.34c0,2.18,2.65,5.47,4.23,7.2a1.28,1.28,0,0,0,1.91,0c1.58-1.75,4.23-5,4.23-7.2A5.28,5.28,0,0,0,298.07,414.29Zm.32,12h0a.42.42,0,0,1-.61,0c-2.51-2.78-4-5.26-4-6.62a4.33,4.33,0,1,1,8.65,0C302.4,421,300.9,423.47,298.39,426.25Z" transform="translate(-292.89 -414.29)"/><path class="cls-1" d="M298.07,416.89a2.59,2.59,0,1,0,2.6,2.59A2.59,2.59,0,0,0,298.07,416.89Zm0,4.32a1.73,1.73,0,1,1,1.73-1.73A1.73,1.73,0,0,1,298.07,421.21Z" transform="translate(-292.89 -414.29)"/></svg>