<svg xmlns="http://www.w3.org/2000/svg" width="14.99" height="8.99" viewBox="0 0 14.99 8.99">
	<style type="text/css">
		.st0{fill:#000000;}
	</style>
	<path class="st0" d="M4.5,6C2.76,5.99 1.28,4.72 1.03,3L10.5,3C10.77,3 11,2.77 11,2.5L11,1.7L13.79,4.5L11,7.29L11,6.5C11,6.22 10.77,6 10.5,6ZM10.3,8.96C10.49,9.03 10.71,8.99 10.85,8.85L14.85,4.85C15.04,4.65 15.04,4.34 14.85,4.14L10.85,0.14C10.65,-0.04 10.34,-0.04 10.14,0.14C10.05,0.24 10,0.36 10,0.5L10,2L0.5,2C0.22,2 0,2.22 0,2.5C0,4.98 2.01,6.99 4.5,7L10,7L10,8.5C10,8.7 10.12,8.88 10.3,8.96"/>
</svg>