<svg xmlns="http://www.w3.org/2000/svg" width="408.48" height="374.83" viewBox="0 0 408.48 374.83">
	<style type="text/css">
		.st0{fill:#1a150f;}
	</style>
	<path class="st0" d="M101.85,0L101.85,101.72L33.93,101.72L33.93,0.11L0,0.11L0,374.82L34.07,374.82L34.07,307.24L374.59,307.24L374.59,374.83L408.48,374.83L408.48,0.06L374.49,0.06L374.49,101.84L340.76,101.84L340.76,0ZM136.64 34.59L203.94 34.59L203.94 101.8L136.64 101.8ZM305.99 34.77L238.61 34.77L238.61 101.76L305.99 101.76ZM34.54,136.67L374.25,136.67L374.25,272.16L272.78,272.16L272.78,170.76L67.81,170.76L67.81,272.15L34.54,272.15ZM237.88 204.74L102.68 204.74L102.68 272.23L237.88 272.23Z"/>
</svg>