<svg id="Слой_1" data-name="Слой 1" xmlns="http://www.w3.org/2000/svg" viewBox="0 0 37.85 27"><defs><style>.cls-1{fill:#54858e;}</style></defs><path class="cls-1" d="M282,418.13h-1.4a1.35,1.35,0,1,1,0-2.7c1.87,0,3.74,0,5.62,0a.61.61,0,0,0,.57-.31q2.36-3.56,4.73-7.09a1.38,1.38,0,0,1,1.51-.67,1.35,1.35,0,0,1,.77,2.11c-.71,1.08-1.43,2.15-2.15,3.23l-1.8,2.7h16.52c-.09-.16-.17-.28-.25-.41l-3.68-5.5a1.34,1.34,0,0,1-.07-1.51,1.31,1.31,0,0,1,1.28-.65,1.44,1.44,0,0,1,1.11.75c1.53,2.31,3.08,4.6,4.6,6.92a.84.84,0,0,0,.81.43c1.79,0,3.58,0,5.36,0a1.36,1.36,0,1,1,0,2.7h-1.3c-.08.93-.16,1.84-.24,2.75-.27,3.27-.53,6.55-.83,9.82a4.25,4.25,0,0,1-4,3.62H287a4.25,4.25,0,0,1-4-3.6c-.25-2.6-.44-5.2-.66-7.81C282.23,421.33,282.1,419.75,282,418.13Zm29.51,0H284.7a1.7,1.7,0,0,0,0,.24c.24,2.91.47,5.83.72,8.74.09,1.16.19,2.32.31,3.48a1,1,0,0,0,1,1,4.87,4.87,0,0,0,.54,0h21.38c1.46,0,1.7-.26,1.81-1.72.17-2.22.37-4.43.55-6.64C311.19,421.57,311.33,419.88,311.47,418.16Z" transform="translate(-279.15 -407.33)"/><path class="cls-1" d="M292.67,424.89c0,.87,0,1.74,0,2.61a1.35,1.35,0,0,1-1.35,1.42,1.34,1.34,0,0,1-1.35-1.41c0-1.75,0-3.51,0-5.26a1.35,1.35,0,1,1,2.7,0C292.68,423.13,292.67,424,292.67,424.89Z" transform="translate(-279.15 -407.33)"/><path class="cls-1" d="M296.73,424.88c0-.87,0-1.74,0-2.61a1.35,1.35,0,1,1,2.7,0v5.22a1.35,1.35,0,1,1-2.7,0C296.72,426.62,296.73,425.75,296.73,424.88Z" transform="translate(-279.15 -407.33)"/><path class="cls-1" d="M306.19,424.89v2.6a1.35,1.35,0,1,1-2.7,0q0-2.61,0-5.22a1.35,1.35,0,1,1,2.7,0Z" transform="translate(-279.15 -407.33)"/></svg>