<svg xmlns="http://www.w3.org/2000/svg" width="458.15" height="456.95" viewBox="0 0 458.15 456.95">
	<style type="text/css">
		.st0{fill:#54858f;}
	</style>
	<path class="st0" d="M217.35,90.8C210.02,83.37 202.73,75.9 195.32,68.56C193.71,66.96 191.81,65.38 189.73,64.56C185.34,62.83 180.38,64.65 177.83,68.42C175.29,72.16 175.57,77.28 178.54,80.96C179.06,81.6 179.68,82.16 180.27,82.75C193.9,96.44 207.51,110.14 221.16,123.81C225.75,128.41 232.12,128.64 236.7,124.09C250.85,109.98 264.92,95.8 278.92,81.56C282.54,77.88 282.96,72.74 280.45,68.72C278.02,64.85 273.25,62.91 268.69,64.49C266.6,65.22 264.64,66.74 263.01,68.31C256.56,74.57 250.26,81 243.89,87.34C242.77,88.45 241.56,89.46 239.37,91.43L239.37,84.38C239.37,61.07 239.39,37.76 239.36,14.45C239.36,12.13 239.33,9.75 238.86,7.5C237.9,2.94 233.78,-0.02 228.97,0C224.12,0.03 220.1,3.01 219.2,7.64C218.73,10.06 218.71,12.6 218.71,15.09C218.68,38.23 218.7,61.38 218.71,84.52C218.71,86.43 218.71,88.34 218.71,90.25C218.25,90.44 217.8,90.62 217.35,90.8"/>
	<path class="st0" d="M443.91,180.27C381.91,180.26 319.92,180.22 257.92,180.3C248.41,180.31 245.01,176.66 244.61,169.23C244.23,162.08 239.43,158.33 233.13,159.04C226.97,159.73 223.59,164.56 224.26,171.74C225.74,187.53 240.73,200.91 257.1,200.92C314.93,200.94 372.75,200.93 430.58,200.93L437.18,200.93L437.18,222.49L423.17,222.49C293.52,222.49 163.86,222.48 34.21,222.49C30.88,222.49 27.53,222.93 24.23,222.68C23.03,222.6 20.99,221.14 20.95,220.24C20.66,213.96 20.8,207.66 20.8,200.92L27.84,200.92C81.84,200.92 135.83,200.93 189.83,200.91C197.18,200.91 202.01,196.83 202.13,190.66C202.24,184.49 197.45,180.28 190.13,180.27C130.8,180.26 71.47,180.25 12.14,180.27C3.84,180.28 0.17,183.78 0.09,192.04C-0.03,205.37 -0.03,218.71 0.1,232.04C0.18,239.67 3.89,243.23 11.57,243.48C15.03,243.6 18.49,243.5 22.18,243.5C22.69,247.94 23.18,251.72 23.55,255.5C26.01,280.19 28.41,304.88 30.88,329.56C33.73,358.05 37.01,386.5 39.42,415.03C41.56,440.33 58.87,456.92 84.39,456.92C142.22,456.93 200.05,456.93 257.88,456.93C275.54,456.93 293.2,456.96 310.87,456.9C317.7,456.88 322.08,452.95 322.28,446.97C322.5,440.33 318.24,436.29 310.76,436.28C279.43,436.25 248.1,436.26 216.77,436.26C173.11,436.26 129.45,436.29 85.78,436.25C70.71,436.24 61.89,429.11 60.35,415.11C57.76,391.61 55.58,368.07 53.22,344.55C50.67,319.04 48.11,293.54 45.57,268.03C44.79,260.16 44.08,252.28 43.31,244.15L414.49,244.15C414.49,245.91 414.62,247.37 414.48,248.81C413.08,263.06 411.63,277.3 410.2,291.55C407.66,316.88 405.12,342.22 402.56,367.56C400.91,383.96 399.42,400.37 397.48,416.74C396.19,427.7 388.54,434.77 377.6,435.53C370.3,436.03 362.97,436.06 355.66,436.26C348.81,436.44 344.59,440.25 344.52,446.38C344.46,452.63 348.9,456.82 355.89,456.91C362.55,457 369.22,456.93 375.88,456.93C395.88,456.92 413.28,443.33 417.2,423.71C419.12,414.12 419.61,404.24 420.61,394.48C423.17,369.31 425.66,344.13 428.19,318.96C430.39,297.1 432.48,275.22 434.86,253.38C435.92,243.66 436.18,243.69 445.69,243.49C454.49,243.31 458.11,239.69 458.13,230.94C458.16,218.77 458.15,206.61 458.14,194.44C458.13,183.27 455.11,180.27 443.91,180.27"/>
	<path class="st0" d="M85.5,393.1C85.72,399.2 89.7,403.27 95.43,403.39C101.15,403.5 105.87,399.57 106.02,393.69C106.31,382.71 106.3,371.72 106.03,360.74C105.89,354.82 101.25,350.87 95.53,350.95C89.77,351.03 85.67,355.1 85.52,361.14C85.39,366.47 85.49,371.8 85.49,377.12L85.48,377.12C85.48,379.79 85.48,382.45 85.48,385.11C85.48,387.78 85.4,390.44 85.5,393.1"/>
	<path class="st0" d="M159.25,361.19C159.1,355.12 155.05,351.07 149.28,350.95C143.57,350.83 138.88,354.8 138.73,360.69C138.47,371.67 138.47,382.67 138.73,393.65C138.88,399.51 143.58,403.49 149.29,403.39C155.04,403.3 159.11,399.22 159.25,393.15C159.37,387.83 159.27,382.5 159.27,377.17C159.27,371.84 159.37,366.51 159.25,361.19"/>
	<path class="st0" d="M245.52,393.17C245.67,399.23 249.76,403.3 255.5,403.39C261.21,403.47 265.88,399.52 266.03,393.63C266.3,382.65 266.3,371.65 266.02,360.67C265.87,354.77 261.18,350.83 255.47,350.95C249.7,351.07 245.66,355.13 245.52,361.21C245.39,366.53 245.49,371.86 245.49,377.19C245.49,382.51 245.38,387.84 245.52,393.17"/>
	<path class="st0" d="M319.24,361.13C319.1,355.09 315,351.04 309.22,350.95C303.51,350.86 298.87,354.84 298.73,360.74C298.47,371.72 298.46,382.72 298.74,393.71C298.89,399.55 303.64,403.52 309.35,403.39C315.09,403.27 319.11,399.19 319.25,393.1C319.37,387.94 319.27,382.78 319.27,377.61C319.27,372.12 319.38,366.62 319.24,361.13"/>
	<path class="st0" d="M106.03,286.02C105.89,280.15 101.17,276.18 95.48,276.29C89.73,276.4 85.67,280.45 85.52,286.52C85.38,291.85 85.49,297.18 85.49,302.51L85.47,302.51C85.47,305.18 85.46,307.85 85.47,310.51C85.47,313.18 85.41,315.85 85.51,318.51C85.73,324.46 89.9,328.77 95.47,328.9C100.93,329.03 105.88,324.77 106.03,319C106.3,308.01 106.31,297.01 106.03,286.02"/>
	<path class="st0" d="M159.27,302.66C159.27,297.33 159.36,292 159.25,286.67C159.12,280.53 155.17,276.45 149.43,276.29C143.71,276.13 138.9,280.05 138.75,285.87C138.46,297.03 138.44,308.2 138.78,319.36C138.95,325.02 144.28,329.25 149.64,328.9C154.99,328.55 159.08,324.32 159.24,318.66C159.39,313.33 159.27,307.99 159.27,302.66"/>
	<path class="st0" d="M266.03,285.97C265.88,280.11 261.13,276.16 255.43,276.29C249.68,276.42 245.66,280.49 245.52,286.57C245.39,291.9 245.49,297.24 245.49,302.57C245.5,307.9 245.39,313.23 245.53,318.56C245.67,324.47 249.98,328.81 255.52,328.9C260.99,329 265.89,324.73 266.03,318.95C266.29,307.96 266.31,296.95 266.03,285.97"/>
	<path class="st0" d="M319.28,302.79C319.27,297.46 319.36,292.13 319.25,286.8C319.13,280.6 315.27,276.51 309.56,276.29C303.63,276.07 298.85,280.15 298.71,286.24C298.47,297.07 298.48,307.91 298.71,318.73C298.83,324.55 303.54,328.88 309.01,328.91C314.71,328.94 319.12,324.46 319.26,318.29C319.38,313.13 319.28,307.96 319.28,302.79"/>
	<path class="st0" d="M212.62,286.8C212.49,280.27 208.35,276.3 202.39,276.29C196.43,276.27 192.39,280.25 192.13,286.77C191.93,291.92 192.09,297.09 192.09,302.25C192.09,307.58 191.92,312.92 192.14,318.24C192.4,324.61 196.67,328.89 202.37,328.9C208.08,328.92 212.48,324.65 212.61,318.27C212.83,307.78 212.83,297.28 212.62,286.8"/>
	<path class="st0" d="M372.7,287.78C372.7,287.44 372.69,287.11 372.67,286.78C372.23,280.27 368.33,276.3 362.37,276.29C356.42,276.28 352.27,280.26 352.14,286.78C351.94,297.27 351.93,307.77 352.15,318.25C352.29,324.62 356.69,328.9 362.39,328.9C368.09,328.91 372.36,324.64 372.63,318.25C372.84,313.1 372.67,307.93 372.67,302.77L372.7,302.77C372.7,297.77 372.7,292.77 372.7,287.78"/>
	<path class="st0" d="M212.64,361.49C212.37,354.95 208.31,350.94 202.41,350.94C196.48,350.94 192.29,354.9 192.15,361.42C191.91,371.89 191.93,382.38 192.15,392.85C192.29,399.41 196.4,403.37 202.35,403.38C208.28,403.4 212.34,399.43 212.62,392.91C212.84,387.76 212.67,382.6 212.67,377.45L212.69,377.45C212.69,372.13 212.87,366.8 212.64,361.49"/>
	<path class="st0" d="M352.14,392.7C352.27,399.28 356.3,403.29 362.2,403.39C368.3,403.48 372.4,399.37 372.64,392.56C372.83,387.41 372.68,382.25 372.69,377.1C372.7,371.94 372.86,366.78 372.65,361.64C372.4,355.09 368.41,351.02 362.57,350.94C356.47,350.86 352.25,354.97 352.12,361.77C351.92,372.08 351.94,382.39 352.14,392.7"/>
</svg>