<svg id="Слой_1" data-name="Слой 1" xmlns="http://www.w3.org/2000/svg" viewBox="0 0 23.14 22.86"><defs><style>.cls-1{fill:#3b395e;}</style></defs><path class="cls-1" d="M306.54,421.07v-3.55a2.56,2.56,0,0,0,1-1.21l0-2.35a1.9,1.9,0,0,0-1.4-1.77h-5.32a3.09,3.09,0,0,0-.71-2,3,3,0,0,0-4.07,0,3,3,0,0,0-.65,2H290a1.77,1.77,0,0,0-1.66,1.75v3l.2.15a5,5,0,0,0,1,.48v3.48h-3l0,.53c0,.37.5,3.36,8.78,4.13l1,2.85a4.17,4.17,0,0,0-2.69,3.05l-.09.58h9l-.09-.58a4.2,4.2,0,0,0-2.69-3.05l1-2.85c8.28-.77,8.75-3.76,8.78-4.13l0-.53Zm-9.72-10.26a1.62,1.62,0,0,1,1.28-.47,1.68,1.68,0,0,1,1.3.48,2.08,2.08,0,0,1,.45,1.36h-3.43A2.09,2.09,0,0,1,296.82,410.81Zm-7.5,3.16c0-.08.11-.8.67-.8h16a.88.88,0,0,1,.62.79V416a1.35,1.35,0,0,1-.62.66,10,10,0,0,1-2.63-.3,4.41,4.41,0,0,0-1.41-1.15l-.11-.06h-3.91a1.07,1.07,0,0,0-.84.34,1,1,0,0,0-.24.76v2.18s-.1.64-.4.64a1.18,1.18,0,0,1-.77-.35v-1.48c0-1.76-.75-1.93-2-2.07a2,2,0,0,0-1.86.75,6.67,6.67,0,0,1-.7.64,1,1,0,0,1-.57.17v-.07H290a2.78,2.78,0,0,1-.66-.28Zm1.17,3.8a1.88,1.88,0,0,0,1.18-.38,7.9,7.9,0,0,0,.8-.72c.39-.41.51-.53,1.07-.46,1.08.12,1.1.12,1.1,1.07v1.83l.1.13a2.23,2.23,0,0,0,1.67.87c1,0,1.33-1,1.4-1.58l0-2.33h3.75a3.53,3.53,0,0,1,.94.75c.1.19.36.66,3.06.75v3.38H290.49Zm10.83,13.44h-6.49a3.71,3.71,0,0,1,6.49,0Zm-2.49-2.86a5.71,5.71,0,0,0-.73-.05h-.05a5.58,5.58,0,0,0-.73.05l-.91-2.54c.53,0,1.07.06,1.66.08h0c.59,0,1.13,0,1.66-.08Zm-.76-3.46c-7.38-.21-9.6-1.93-10.26-2.82h20.53C307.67,423,305.45,424.68,298.07,424.89Z" transform="translate(-286.5 -409.34)"/></svg>