<svg id="Слой_1" data-name="Слой 1" xmlns="http://www.w3.org/2000/svg" viewBox="0 0 18.73 22.42"><defs><style>.cls-1{fill:#3b395e;}</style></defs><path class="cls-1" d="M307.44,421.38l-.64-.77L305,422.13V409.56H291v10.06l-2.28-1.51v7.4l1.12.14v4.88a1.63,1.63,0,0,0,.37,1.1,1.15,1.15,0,0,0,.84.34H304.7l.17,0a1,1,0,0,0,.58-.18,1.44,1.44,0,0,0,.47-1.21v-4.54l1.36-4.55Zm-7,4.48-.4-.26h.72ZM304,421.6h-1.09v-2H304Zm-2.09,3h-2v-2h2Zm-2-3v-2h2v2Zm-1-5v2h-2v-2Zm-2-1v-2h2v2Zm3,1h2v2h-2Zm-1,3v2h-2v-2Zm5.09-1h-1.09v-2H304Zm0-3h-1.09v-2H304Zm-2.09,0h-2v-2h2Zm-2-3v-2h2v2Zm-1,0h-2v-2h2Zm-3,0h-2v-2h2Zm0,1v2h-2v-2Zm-3,2H292v-2h.88Zm0,1v2H292v-2Zm1,0h2v2h-2Zm2,3v2h-1.8v.06l-.2-.13V419.6Zm0,3v.25l-.37-.25Zm1,0h2v2h-.34l-1.66-1.09Zm6,0H304v.27h.11l-1.2,1Zm1.09-10h-1.09v-2H304Zm-11.09-2v2H292v-2Zm-.88,9h.88v1.27l-.88-.59Zm-2.28.37,3.16,2.09v.06H293l5.45,3.6-8.7-1.09Zm1.22,11a.65.65,0,0,1-.1-.38v-4.78l9.14,1.15V431H291C291,431,290.94,431,290.93,430.94Zm13.95.05H301v-2.87h4v2.49A3.06,3.06,0,0,1,304.88,431Zm.06-5.15v1.27h-4v-.39l4.93-4.06Z" transform="translate(-288.71 -409.56)"/></svg>