<svg id="Слой_1" data-name="Слой 1" xmlns="http://www.w3.org/2000/svg" viewBox="0 0 22.12 22.2"><defs><style>.cls-1{fill:#3b395e;}</style></defs><path class="cls-1" d="M296.07,417.3v-5.53l0-.14c-.09-.32-.61-1.94-1.76-1.94H290.5a1.39,1.39,0,0,0-1,.39,2.51,2.51,0,0,0-.66,1.94v5.5a4.13,4.13,0,0,0-1.82,3.23v11.14h11.22V420.14A4.53,4.53,0,0,0,296.07,417.3ZM289.84,412c0-1.29.54-1.33.63-1.33h3.82c.25,0,.6.6.78,1.15v5.09a4,4,0,0,0-.86-.09h-4.12l-.2,0-.05,0Zm7.4,18.87H288V420.75c0-1.67,1.77-2.69,2.19-2.91h4a3.21,3.21,0,0,1,3,2.47Z" transform="translate(-287.02 -409.69)"/><path class="cls-1" d="M309.13,409.86h-9.19l2.78,17.25h.51v4.78h2.53v-4.78h.64Zm-7.2,6.08h5.23l-.34,2.14a3.7,3.7,0,0,0-2.28-.8,3.37,3.37,0,0,0-2.25.89Zm6-5.08-.65,4.08h-5.54l-.66-4.08Zm-5.47,8.56a2.62,2.62,0,0,1,2.05-1.14,2.84,2.84,0,0,1,2.09,1l-1.09,6.85h-2Zm2.27,11.47h-.53v-3.78h.53Z" transform="translate(-287.02 -409.69)"/><path class="cls-1" d="M292.75,421.93l-.36-.28-.31.35c-.25.28-2.41,2.79-2.28,4.65a2.66,2.66,0,0,0,2.83,2.54,2.9,2.9,0,0,0,2.53-2.58A7.31,7.31,0,0,0,292.75,421.93Zm-.12,6.26a1.67,1.67,0,0,1-1.83-1.62c-.08-1,1-2.65,1.71-3.53a6.76,6.76,0,0,1,1.65,3.57A2,2,0,0,1,292.63,428.19Z" transform="translate(-287.02 -409.69)"/></svg>