<svg id="Слой_1" data-name="Слой 1" xmlns="http://www.w3.org/2000/svg" viewBox="0 0 22.56 22"><defs><style>.cls-1{fill:#3b395e;}</style></defs><path class="cls-1" d="M309.35,415.14h-5.71a5.22,5.22,0,0,0,1.94-1.19,3.1,3.1,0,0,0-.07-2.85c-.38-.64-1.25-1.37-3.18-1.26a4.75,4.75,0,0,0-3.95,2.87c-.95-1.25-2.93-3-5-2.88a3.21,3.21,0,0,0-2.81,1.3,2.63,2.63,0,0,0,0,2.49,3.51,3.51,0,0,0,2,1.52h-5.79v6.71h1.56v10H308v-10h1.38Zm-10.14,6.71v9h-2v-9Zm-2-1.28v-4.43h2v4.43Zm5.17-9.73c1.15-.07,1.91.19,2.27.78a2.14,2.14,0,0,1,.07,1.8,17.09,17.09,0,0,1-3.81,1.72l-2.1-.09a2.05,2.05,0,0,0,.16-1.21A4,4,0,0,1,302.39,410.84Zm-10.92,2.38a1.68,1.68,0,0,1,0-1.56,2.44,2.44,0,0,1,2-.83c2-.06,4.06,2.17,4.48,3a8.2,8.2,0,0,0-.27,1.16l0,.16h-.89C294.78,414.88,291.86,414.11,291.47,413.22Zm-3.68,7.63v-4.71h8.43v4.43h-7.87v.28Zm1.56,1h6.87v9h-6.87Zm17.62,9h-6.76v-9H307Zm1.38-10H308v-.28h-7.76v-4.43h8.14Z" transform="translate(-286.79 -409.83)"/></svg>