<svg id="Слой_1" data-name="Слой 1" xmlns="http://www.w3.org/2000/svg" viewBox="0 0 22.7 13.22"><defs><style>.cls-1{fill:#3b395e;}</style></defs><path class="cls-1" d="M309.24,414.31a.5.5,0,0,0-.58,0l-1.15.73-.58-.64a.51.51,0,0,0-.71,0l-.91.83-1.3-.87a.51.51,0,0,0-.68.11l-.58.76-1.32-.87a.5.5,0,0,0-.39-.07.53.53,0,0,0-.32.23l-.43.71-1.27-.87a.5.5,0,0,0-.67.11l-.64.81-1.11-.89a.48.48,0,0,0-.37-.11.45.45,0,0,0-.33.19l-.65.81-1.1-.89a.48.48,0,0,0-.38-.11.51.51,0,0,0-.34.21l-.64.91-1.11-1a.53.53,0,0,0-.38-.12.49.49,0,0,0-.35.19l-.59.75-.93-.82a.51.51,0,0,0-.39-.12.5.5,0,0,0-.35.21l-.39.55-.75-.64a.51.51,0,0,0-.61,0,.5.5,0,0,0-.18.58l4.32,12.22a.51.51,0,0,0,.47.34h13a.51.51,0,0,0,.47-.33l4.37-12.23A.5.5,0,0,0,309.24,414.31Zm-3.56,1.84.65-.58-3.55,10.85h-.46l2.73-10.24h0A.5.5,0,0,0,305.68,416.15Zm-2.43,0,.59-.76.33.22-2.88,10.83h0l1.49-10.11A.49.49,0,0,0,303.25,416.13Zm-2.38,0,.44-.72.52.34-1.57,10.68H300l.66-10.1A.45.45,0,0,0,300.87,416.12Zm-2-.75.8.55-.68,10.5h-.37l.21-10.74h-.19Zm-1.06,1-.19,10h-.73V415.8l.61.49A.5.5,0,0,0,297.78,416.39Zm-1.32-.92h-.15l.06-.07Zm-1.07.93a.49.49,0,0,0,.33-.19l.14-.17v10.38h-.13L295,416.28h0A.54.54,0,0,0,295.39,416.4Zm-2.1,0,.65-.93.1.08H294l.77,10.91h-.22l-1.7-9.87.14,0A.51.51,0,0,0,293.29,416.35Zm-2.47-.18.59-.75.21.2,1.87,10.8h-.1l-2.94-10.06h0A.48.48,0,0,0,290.82,416.17Zm-2.54,0a.49.49,0,0,0,.52-.2l.36-.5,3.19,10.94h-.45Zm15.93,10.24h-.37l3.37-10.32a.51.51,0,0,0,.49,0l.26-.17Z" transform="translate(-286.73 -414.2)"/></svg>