<svg id="Слой_1" data-name="Слой 1" xmlns="http://www.w3.org/2000/svg" viewBox="0 0 23.34 23.16"><defs><style>.cls-1{fill:#3b395e;}</style></defs><path class="cls-1" d="M303.64,418.86a.53.53,0,0,0-.46-.31.51.51,0,0,0-.47.32l-4.9,12.81a.5.5,0,0,0,.05.46.53.53,0,0,0,.42.21h10.14a.48.48,0,0,0,.41-.22.49.49,0,0,0,.05-.47Zm1.79,12.49v-3h-1v3H299l4.2-10.94,4.47,10.94Z" transform="translate(-286.4 -409.2)"/><path class="cls-1" d="M294.69,427.36c-.26-.46-.58-1-.76-1.42,3.77-.17,6.8-3.85,6.8-8.36s-3.17-8.38-7.07-8.38-7.07,3.76-7.07,8.38c0,4.29,2.75,7.83,6.26,8.31a9.67,9.67,0,0,0,1,2c.17.29.35.6.52.91a12.88,12.88,0,0,1,1,2.63l1-.25a14.31,14.31,0,0,0-1.13-2.86C295.05,428,294.87,427.66,294.69,427.36Zm-7.1-9.78c0-4.07,2.73-7.38,6.07-7.38s6.07,3.31,6.07,7.38S297,425,293.66,425,287.59,421.64,287.59,417.58Z" transform="translate(-286.4 -409.2)"/><path class="cls-1" d="M289.3,417.14l1,.17s.48-2.75,2-3.7l-.54-.84C289.86,414,289.33,417,289.3,417.14Z" transform="translate(-286.4 -409.2)"/><path class="cls-1" d="M303.43,411.58c0-.11-.08-1.1,1.78-1.39l-.15-1a3.25,3.25,0,0,0-2.24,1.15,1.94,1.94,0,0,0-.38,1.38Z" transform="translate(-286.4 -409.2)"/><path class="cls-1" d="M309.74,419.73a6.15,6.15,0,0,0-1.32-2.83l-.76.65a5.31,5.31,0,0,1,1.09,2.32Z" transform="translate(-286.4 -409.2)"/><path class="cls-1" d="M287.28,426.17l-.88.48a11.56,11.56,0,0,0,2.64,3.24l.59-.81A10.74,10.74,0,0,1,287.28,426.17Z" transform="translate(-286.4 -409.2)"/></svg>