<svg xmlns="http://www.w3.org/2000/svg"
 xmlns:xlink="http://www.w3.org/1999/xlink"
 width="17px" height="15px"  viewBox="0 0 17 15">
<path fill-rule="evenodd"  fill="#54858f"
 d="M1.6405945,1.9999084 C1.6405945,1.9999084 15.3594055,1.9999084 15.3594055,1.9999084 C15.713211,1.9999084 15.999985,2.2867432 15.999985,2.640625 C15.999985,2.9945068 15.713211,3.281311 15.3594055,3.281311 C15.3594055,3.281311 1.6405945,3.281311 1.6405945,3.281311 C1.286789,3.281311 1.0000153,2.9945068 1.0000153,2.640625 C1.0000153,2.2867432 1.286789,1.9999084 1.6405945,1.9999084 ZM1.6428833,6.8437195 C1.6428833,6.8437195 15.357117,6.8437195 15.357117,6.8437195 C15.712158,6.8437195 15.999985,7.131653 15.999985,7.486664 C15.999985,7.486664 15.999985,7.5134583 15.999985,7.5134583 C15.999985,7.868469 15.712158,8.1562195 15.357117,8.1562195 C15.357117,8.1562195 1.6428833,8.1562195 1.6428833,8.1562195 C1.2878418,8.1562195 1.0000153,7.868469 1.0000153,7.5134583 C1.0000153,7.5134583 1.0000153,7.486664 1.0000153,7.486664 C1.0000153,7.131653 1.2878418,6.8437195 1.6428833,6.8437195 ZM1.6405945,11.718811 C1.6405945,11.718811 15.3594055,11.718811 15.3594055,11.718811 C15.713211,11.718811 15.999985,12.005615 15.999985,12.359314 C15.999985,12.713196 15.713211,13.0 15.3594055,13.0 C15.3594055,13.0 1.6405945,13.0 1.6405945,13.0 C1.286789,13.0 1.0000153,12.713196 1.0000153,12.359314 C1.0000153,12.005615 1.286789,11.718811 1.6405945,11.718811 Z"/>
</svg>