<svg id="Слой_1" data-name="Слой 1" xmlns="http://www.w3.org/2000/svg" viewBox="0 0 16.65 16.67"><path d="M297.14,420.79l-5.28-5.26c-.57-.58-1.14-1.15-1.72-1.72-.43-.44-.49-.85-.15-1.16s.71-.25,1.13.17l6.49,6.5.46.48c.21-.21.28-.26.39-.37l6.56-6.56a2,2,0,0,1,.35-.31.69.69,0,0,1,.95.93,2,2,0,0,1-.31.35q-3.28,3.29-6.56,6.56a3.17,3.17,0,0,0-.38.42c.41.37.28.24.41.37q3.3,3.27,6.56,6.56a1.15,1.15,0,0,1,.34.74c0,.19-.24.44-.44.56s-.56,0-.78-.22l-2.29-2.3-4.76-4.76c-.12.11-.24.21-.34.32l-6.57,6.56c-.08.08-.16.17-.24.24a.68.68,0,0,1-1,0,.69.69,0,0,1,0-1c.07-.08.16-.16.24-.24l6.53-6.53C296.85,421,296.74,421.15,297.14,420.79Z" transform="translate(-289.77 -412.45)"/></svg>