<svg id="Слой_1" data-name="Слой 1" xmlns="http://www.w3.org/2000/svg" viewBox="0 0 13.93 13.94"><defs><style>.cls-1{fill:#b1b1b1;}</style></defs><path class="cls-1" d="M305,416.84a.64.64,0,0,0-.67-.5h-3.1v-1.26a1.28,1.28,0,0,0-1.25-1.27h-3.85a1.25,1.25,0,0,0-1.22,1.06,7.61,7.61,0,0,0,0,.83c0,.21,0,.42,0,.64h-3.09a.72.72,0,0,0-.47.14.64.64,0,0,0-.2.71.63.63,0,0,0,.6.43h.66l.06.88c0,.7.08,1.4.13,2.1s.09,1.42.14,2.13.08,1.46.13,2.19.09,1.43.13,2.15a.66.66,0,0,0,.71.68h8.75a.66.66,0,0,0,.69-.67c0-.54.06-1.08.1-1.62,0-.74.09-1.48.14-2.22l.12-2.07c.05-.74.1-1.48.14-2.22,0-.43.06-.87.09-1.33h.76A.63.63,0,0,0,305,416.84Zm-8.84-1.75H300v1.25h-3.78Zm5.73,11.38h-7.66l-.56-8.84h8.77Z" transform="translate(-291.1 -413.81)"/><path class="cls-1" d="M296.79,425.21a.63.63,0,0,0,.65-.63v-5.06a.64.64,0,1,0-1.27,0v5A.62.62,0,0,0,296.79,425.21Z" transform="translate(-291.1 -413.81)"/><path class="cls-1" d="M298.69,424.54a.64.64,0,0,0,.63.67.62.62,0,0,0,.64-.66c0-.83,0-1.66,0-2.49s0-1.68,0-2.52a.58.58,0,0,0,0-.19.62.62,0,0,0-.69-.47.64.64,0,0,0-.56.62v5Z" transform="translate(-291.1 -413.81)"/></svg>