<svg id="Слой_1" data-name="Слой 1" xmlns="http://www.w3.org/2000/svg" viewBox="0 0 12.88 12.01"><defs><style>.cls-1{fill:#e94547;}</style></defs><path class="cls-1" d="M304.26,425.15q-2.62-4.81-5.26-9.64a1.14,1.14,0,0,0-2,0l-2.79,5.11-2.48,4.54a1.12,1.12,0,0,0-.12.82,1.15,1.15,0,0,0,1.2.91h10.39a1.67,1.67,0,0,0,.38,0A1.13,1.13,0,0,0,304.26,425.15Zm-11.46.51,5.18-9.5,5.18,9.5Z" transform="translate(-291.54 -414.88)"/><path class="cls-1" d="M297.39,422.07h1.19v-2.41h-1.19Z" transform="translate(-291.54 -414.88)"/><path class="cls-1" d="M297.39,424.46h1.19v-1.19h-1.19Z" transform="translate(-291.54 -414.88)"/></svg>