<svg id="Слой_1" data-name="Слой 1" xmlns="http://www.w3.org/2000/svg" viewBox="0 0 17.96 14.8"><defs><style>.cls-1{fill:#5c6f99;}</style></defs><g id="_1" data-name=" 1"><path class="cls-1" d="M298.08,428.3a.5.5,0,0,1-.17,0,12.86,12.86,0,0,1-5.85-3,9.31,9.31,0,0,1-2.66-4.32,7.93,7.93,0,0,1-.2-3.44,4.9,4.9,0,0,1,1.27-2.63,5.21,5.21,0,0,1,5.63-.92,4.67,4.67,0,0,1,1.86,1.34l.11.15.12-.15a4.67,4.67,0,0,1,1.86-1.34,5.21,5.21,0,0,1,5.63.92,4.9,4.9,0,0,1,1.27,2.63,7.93,7.93,0,0,1-.2,3.44,9.31,9.31,0,0,1-2.66,4.32,12.86,12.86,0,0,1-5.85,3A.47.47,0,0,1,298.08,428.3Z" transform="translate(-289.1 -413.51)"/></g></svg>