<svg id="Слой_1" data-name="Слой 1" xmlns="http://www.w3.org/2000/svg" viewBox="0 0 30 30"><defs><style>.cls-1{fill:#fff;}</style></defs><path class="cls-1" d="M299.7,421.13c-.32-.32-.32-.33,0-.64l1.95-1.95,1.57-1.57c.06-.07.1-.24.06-.29-.36-.39-.74-.78-1.13-1.17l-.25.24-3.56,3.56c-.17.17-.27.19-.45,0-1-1-2.05-2.06-3.08-3.09l-.7-.75c-.43.43-.81.8-1.17,1.19a.34.34,0,0,0,0,.29q1.8,1.82,3.61,3.6c.19.19.2.3,0,.49-1.21,1.19-2.4,2.39-3.59,3.58l-.15.17,1.24,1.28.26-.24,3.52-3.53c.16-.17.27-.19.45,0,.93.95,1.88,1.89,2.82,2.83l.95.94,1.31-1.33a3.13,3.13,0,0,1-.35-.26Z" transform="translate(-283.07 -405.78)"/><path class="cls-1" d="M298.07,405.78a15,15,0,1,0,15,15A15,15,0,0,0,298.07,405.78Zm.54,28.3a13.32,13.32,0,1,1,12.81-13.46A13.17,13.17,0,0,1,298.61,434.08Z" transform="translate(-283.07 -405.78)"/></svg>