<svg id="Слой_1" data-name="Слой 1" xmlns="http://www.w3.org/2000/svg" viewBox="0 0 25.04 20.63"><defs><style>.cls-1{fill:#9eabc7;}</style></defs><g id="_1" data-name=" 1"><path class="cls-1" d="M298.08,431.27a.85.85,0,0,1-.23,0,18.18,18.18,0,0,1-8.17-4.22,13.09,13.09,0,0,1-3.7-6,10.89,10.89,0,0,1-.27-4.79,6.81,6.81,0,0,1,1.76-3.67,7.27,7.27,0,0,1,7.85-1.29,6.49,6.49,0,0,1,2.59,1.87c.06.07.11.15.16.22l.17-.22a6.49,6.49,0,0,1,2.59-1.87,7.27,7.27,0,0,1,7.85,1.29,6.81,6.81,0,0,1,1.76,3.67,10.89,10.89,0,0,1-.27,4.79,13,13,0,0,1-3.71,6,18.09,18.09,0,0,1-8.16,4.22A.83.83,0,0,1,298.08,431.27Zm-5.77-18.78a5,5,0,0,0-3.52,1.36c-1.31,1.32-1.73,4-1,6.65a11.24,11.24,0,0,0,3.18,5.16,16.28,16.28,0,0,0,7.12,3.71,16.24,16.24,0,0,0,7.11-3.71,11.35,11.35,0,0,0,3.19-5.16c.71-2.6.3-5.33-1-6.65a5.37,5.37,0,0,0-5.82-.89,3.62,3.62,0,0,0-2.54,3.18.94.94,0,0,1-1.87,0A3.62,3.62,0,0,0,294.6,413,6.17,6.17,0,0,0,292.31,412.49Z" transform="translate(-285.56 -410.64)"/></g></svg>