<svg id="Слой_1" data-name="Слой 1" xmlns="http://www.w3.org/2000/svg" viewBox="0 0 13.97 13.97"><defs><style>.cls-1{fill:#758cb1;}</style></defs><path class="cls-1" d="M303.06,416.16a6.78,6.78,0,0,0-3.91-2.17,6.58,6.58,0,0,0-4.57.8,7,7,0,0,0-3.37,4.33,5.32,5.32,0,0,0-.21,1.43c0,.06,0,.11,0,.17V421a.8.8,0,0,1,0,.15,6.72,6.72,0,0,0,1.38,3.83,7,7,0,0,0,3.25,2.44,6.5,6.5,0,0,0,2,.41l.16,0h.27l.15,0a6.77,6.77,0,0,0,3.95-1.46,6.88,6.88,0,0,0,2.64-4.38A6.71,6.71,0,0,0,303.06,416.16ZM298.19,427a6.14,6.14,0,1,1,5.9-6.2A6.07,6.07,0,0,1,298.19,427Z" transform="translate(-290.96 -413.88)"/><path class="cls-1" d="M298.69,421c-.15-.14-.14-.15,0-.29l.9-.9.72-.72s.05-.11,0-.13c-.17-.19-.34-.36-.52-.55l-.12.11-1.64,1.65c-.08.07-.12.08-.21,0l-1.41-1.42-.33-.35-.54.55a.2.2,0,0,0,0,.13c.55.56,1.11,1.11,1.67,1.66.08.09.09.14,0,.23l-1.65,1.65-.07.07.57.6.12-.12,1.62-1.62c.07-.08.12-.09.21,0l1.3,1.3.44.43.6-.61a1.67,1.67,0,0,1-.16-.12Z" transform="translate(-290.96 -413.88)"/></svg>