<svg id="Слой_1" data-name="Слой 1" xmlns="http://www.w3.org/2000/svg" viewBox="0 0 11.88 13.99"><defs><style>.cls-1{fill:#4e73ac;}</style></defs><path class="cls-1" d="M296.88,427.77a1,1,0,0,1-.49-1c0-1.6,0-3.19,0-4.79a.92.92,0,0,0-.14-.48l-3.61-5.76a3.73,3.73,0,0,1-.4-.83.89.89,0,0,1,.82-1.16h10a.91.91,0,0,1,1,.71,1.16,1.16,0,0,1-.06.58,4.45,4.45,0,0,1-.39.75c-1.19,1.9-2.39,3.8-3.58,5.71a.92.92,0,0,0-.14.48c0,1,0,1.93,0,2.9a1.49,1.49,0,0,1-.5,1.16c-.68.58-1.37,1.14-2.06,1.7Zm6-12.87H293.4a2.63,2.63,0,0,0,.15.26c1.25,2,2.5,4,3.74,6a1.31,1.31,0,0,1,.18.64c0,1.4,0,2.8,0,4.2,0,.08,0,.15,0,.27.37-.31.7-.6,1-.87a.69.69,0,0,0,.26-.57c0-1.05,0-2.1,0-3.14a1,1,0,0,1,.13-.44c1.25-2,2.52-4,3.79-6Z" transform="translate(-292.19 -413.78)"/></svg>