<svg id="Слой_1" data-name="Слой 1" xmlns="http://www.w3.org/2000/svg" viewBox="0 0 133.96 51.12"><defs><style>.cls-1{fill:#638f98;}</style></defs><polygon class="cls-1" points="13.05 35.93 6.69 27.6 12.7 19.73 10.85 19.73 5.37 26.99 1.67 26.99 1.67 19.73 0 19.73 0 35.93 1.67 35.93 1.67 28.5 5.37 28.5 11.08 35.93 13.05 35.93"/><path class="cls-1" d="M248.06,429.94a4.37,4.37,0,0,1-1.53-.32L246,431a5.23,5.23,0,0,0,2,.44,4.67,4.67,0,0,0,4.14-2.86L259.53,415h-1.71l-5.78,11-5.65-11h-1.83l6.57,12.47-.46.78A3,3,0,0,1,248.06,429.94Z" transform="translate(-231.09 -395.22)"/><path class="cls-1" d="M263.51,421.89c-.2,5.46-1,7.82-3.05,7.82a3.07,3.07,0,0,1-.76-.09l-.14,1.52a5.15,5.15,0,0,0,1.29.17c2.94,0,4-3,4.19-9.47l.19-5.41h7.82v14.71h1.69V415h-11Z" transform="translate(-231.09 -395.22)"/><polygon class="cls-1" points="62.71 35.93 62.71 19.73 61.16 19.73 50.79 33.15 50.79 19.73 49.1 19.73 49.1 35.93 50.66 35.93 61.02 22.53 61.02 35.93 62.71 35.93"/><polygon class="cls-1" points="80.02 26.95 69.89 26.95 69.89 19.73 68.17 19.73 68.17 35.93 69.89 35.93 69.89 28.45 80.02 28.45 80.02 35.93 81.71 35.93 81.71 19.73 80.02 19.73 80.02 26.95"/><path class="cls-1" d="M328.63,426.82l1.95,4.32h1.8L325,415h-1.69l-7.41,16.19h1.78l1.95-4.32Zm-4.51-10.09,3.89,8.7h-7.78Z" transform="translate(-231.09 -395.22)"/><path class="cls-1" d="M341.54,415h-6.06v16.19h1.71V426h4.35c4.12,0,6.62-2.08,6.62-5.53S345.66,415,341.54,415Zm0,9.58h-4.31v-8.1h4.31c3.24,0,4.95,1.48,4.95,4.07S344.74,424.53,341.5,424.53Z" transform="translate(-231.09 -395.22)"/><path class="cls-1" d="M357.58,415h-1.69l-7.4,16.19h1.78l1.94-4.32h9l1.94,4.32H365Zm-4.74,10.48,3.88-8.7,3.89,8.7Z" transform="translate(-231.09 -395.22)"/><polygon class="cls-1" points="13.39 47.63 12.75 47.63 11.46 49.27 11.46 47.63 10.93 47.63 10.93 51.09 11.46 51.09 11.46 49.28 12.85 51.09 13.51 51.09 12.06 49.26 13.39 47.63"/><path class="cls-1" d="M247.16,444.7l-.82-1.85h-.55l1.12,2.43-.12.28a.43.43,0,0,1-.41.28h-.24v.47h.35a.78.78,0,0,0,.73-.57l1.24-2.89h-.55Z" transform="translate(-231.09 -395.22)"/><path class="cls-1" d="M250.38,444.34a5.15,5.15,0,0,1,0,.76,1.32,1.32,0,0,1-.14.46.55.55,0,0,1-.47.28h-.1v.47h.22a.85.85,0,0,0,.79-.42,3.06,3.06,0,0,0,.25-1.48v-1.09h1v3h.52v-3.46h-2Z" transform="translate(-231.09 -395.22)"/><polygon class="cls-1" points="23.9 50.14 23.9 47.63 23.38 47.63 23.38 51.09 23.86 51.09 25.4 48.58 25.4 51.09 25.93 51.09 25.93 47.63 25.45 47.63 23.9 50.14"/><polygon class="cls-1" points="29.91 49.11 28.52 49.11 28.52 47.63 27.99 47.63 27.99 51.09 28.52 51.09 28.52 49.58 29.91 49.58 29.91 51.09 30.44 51.09 30.44 47.63 29.91 47.63 29.91 49.11"/><path class="cls-1" d="M264.45,442.85l-1.26,3.46h.55l.24-.7h1.37l.24.7h.55l-1.27-3.46Zm-.32,2.32.55-1.54.52,1.54Z" transform="translate(-231.09 -395.22)"/><path class="cls-1" d="M269.1,442.85h-1.31v3.46h.53V445h.78a1.12,1.12,0,0,0,.8-.29,1.09,1.09,0,0,0,0-1.52A1.12,1.12,0,0,0,269.1,442.85Zm.42,1.47a.61.61,0,0,1-.45.16h-.75v-1.16h.75a.61.61,0,0,1,.45.16.6.6,0,0,1,0,.84Z" transform="translate(-231.09 -395.22)"/><polygon class="cls-1" points="42.84 49.11 41.44 49.11 41.44 47.63 40.92 47.63 40.92 51.09 41.44 51.09 41.44 49.58 42.84 49.58 42.84 51.09 43.37 51.09 43.37 47.63 42.84 47.63 42.84 49.11"/><path class="cls-1" d="M277.85,444.21h-.8v-1.36h-.53v3.46h1.33a1.08,1.08,0,0,0,.79-.3,1,1,0,0,0,.3-.75,1,1,0,0,0-.3-.76A1.1,1.1,0,0,0,277.85,444.21Zm.4,1.47a.65.65,0,0,1-.45.16h-.75v-1.16h.75a.61.61,0,0,1,.45.16.63.63,0,0,1,0,.84Z" transform="translate(-231.09 -395.22)"/><rect class="cls-1" x="48.27" y="47.63" width="0.52" height="3.45"/><path class="cls-1" d="M283.75,442.49A.6.6,0,0,0,284,442h-.39a.36.36,0,0,1-.71,0h-.39a.63.63,0,0,0,.22.49.82.82,0,0,0,.53.16A.81.81,0,0,0,283.75,442.49Z" transform="translate(-231.09 -395.22)"/><polygon class="cls-1" points="51.38 50.14 51.38 47.63 50.86 47.63 50.86 51.09 51.33 51.09 52.88 48.58 52.88 51.09 53.4 51.09 53.4 47.63 52.92 47.63 51.38 50.14"/><polygon class="cls-1" points="58.32 50.14 58.32 47.63 57.8 47.63 57.8 51.09 58.27 51.09 59.82 48.58 59.82 51.09 60.34 51.09 60.34 47.63 59.86 47.63 58.32 50.14"/><polygon class="cls-1" points="64.33 49.11 62.94 49.11 62.94 47.63 62.41 47.63 62.41 51.09 62.94 51.09 62.94 49.58 64.33 49.58 64.33 51.09 64.86 51.09 64.86 47.63 64.33 47.63 64.33 49.11"/><polygon class="cls-1" points="66.62 48.1 67.57 48.1 67.57 51.09 68.09 51.09 68.09 48.1 69.04 48.1 69.04 47.63 66.62 47.63 66.62 48.1"/><polygon class="cls-1" points="70.8 51.09 73.02 51.09 73.02 50.62 71.33 50.62 71.33 49.58 72.76 49.58 72.76 49.11 71.33 49.11 71.33 48.1 73.02 48.1 73.02 47.63 70.8 47.63 70.8 51.09"/><path class="cls-1" d="M307.3,442.85H306v3.46h.52V445h.79a1.11,1.11,0,0,0,.79-.29,1.09,1.09,0,0,0,0-1.52A1.11,1.11,0,0,0,307.3,442.85Zm.41,1.47a.61.61,0,0,1-.45.16h-.75v-1.16h.75a.61.61,0,0,1,.45.16.6.6,0,0,1,0,.84Z" transform="translate(-231.09 -395.22)"/><polygon class="cls-1" points="81.03 49.11 79.63 49.11 79.63 47.63 79.11 47.63 79.11 51.09 79.63 51.09 79.63 49.58 81.03 49.58 81.03 51.09 81.56 51.09 81.56 47.63 81.03 47.63 81.03 49.11"/><polygon class="cls-1" points="83.62 51.09 85.83 51.09 85.83 50.62 84.14 50.62 84.14 49.58 85.58 49.58 85.58 49.11 84.14 49.11 84.14 48.1 85.83 48.1 85.83 47.63 83.62 47.63 83.62 51.09"/><polygon class="cls-1" points="87.4 48.1 88.35 48.1 88.35 51.09 88.88 51.09 88.88 48.1 89.83 48.1 89.83 47.63 87.4 47.63 87.4 48.1"/><rect class="cls-1" x="91.46" y="49.13" width="1.42" height="0.46"/><polygon class="cls-1" points="96.35 49.78 95.34 47.63 94.82 47.63 94.82 51.09 95.34 51.09 95.34 48.78 96.15 50.46 96.54 50.46 97.34 48.78 97.34 51.09 97.87 51.09 97.87 47.63 97.34 47.63 96.35 49.78"/><path class="cls-1" d="M331.88,442.85l-1.27,3.46h.55l.25-.7h1.36l.24.7h.55l-1.26-3.46Zm-.32,2.32.54-1.54.53,1.54Z" transform="translate(-231.09 -395.22)"/><polygon class="cls-1" points="104.15 51.09 104.67 51.09 104.67 48.1 106.27 48.1 106.27 47.63 104.15 47.63 104.15 51.09"/><path class="cls-1" d="M339.59,442.85l-1.27,3.46h.56l.24-.7h1.36l.24.7h.55L340,442.85Zm-.32,2.32.54-1.54.53,1.54Z" transform="translate(-231.09 -395.22)"/><path class="cls-1" d="M344.59,444.52a.78.78,0,0,0,.48-.76.84.84,0,0,0-.32-.68,1.25,1.25,0,0,0-.81-.26,1.19,1.19,0,0,0-.81.28,1.24,1.24,0,0,0-.42.78h.53a.79.79,0,0,1,.24-.44.66.66,0,0,1,.46-.16.68.68,0,0,1,.44.13.51.51,0,0,1,.16.38.5.5,0,0,1-.15.39.52.52,0,0,1-.4.14h-.45v.44H344a.65.65,0,0,1,.45.14.5.5,0,0,1,.16.41.51.51,0,0,1-.18.41.72.72,0,0,1-.47.15.65.65,0,0,1-.46-.16.77.77,0,0,1-.25-.43h-.52a1.27,1.27,0,0,0,.42.78,1.19,1.19,0,0,0,.8.27,1.31,1.31,0,0,0,.85-.27.9.9,0,0,0,.34-.73A.8.8,0,0,0,344.59,444.52Z" transform="translate(-231.09 -395.22)"/><polygon class="cls-1" points="116.49 50.14 116.49 47.63 115.97 47.63 115.97 51.09 116.44 51.09 117.99 48.58 117.99 51.09 118.51 51.09 118.51 47.63 118.03 47.63 116.49 50.14"/><polygon class="cls-1" points="122.5 49.11 121.1 49.11 121.1 47.63 120.58 47.63 120.58 51.09 121.1 51.09 121.1 49.58 122.5 49.58 122.5 51.09 123.03 51.09 123.03 47.63 122.5 47.63 122.5 49.11"/><circle class="cls-1" cx="0.72" cy="49.29" r="0.72"/><path class="cls-1" d="M364.33,443.79a.72.72,0,1,0,.73.72A.72.72,0,0,0,364.33,443.79Z" transform="translate(-231.09 -395.22)"/><polygon class="cls-1" points="8.63 10.34 8.63 0.09 0 0.09 0 10.34 1.07 10.34 1.07 1.03 7.56 1.03 7.56 10.34 8.63 10.34"/><path class="cls-1" d="M242.29,400.43a5.39,5.39,0,1,0,5.39-5.21A5.16,5.16,0,0,0,242.29,400.43Zm9.68,0a4.31,4.31,0,1,1-4.29-4.25A4.15,4.15,0,0,1,252,400.43Z" transform="translate(-231.09 -395.22)"/><polygon class="cls-1" points="34.16 10.34 35.2 10.34 35.2 0.09 34.31 0.09 29.9 7.69 25.45 0.09 24.55 0.09 24.55 10.34 25.59 10.34 25.59 2.18 29.62 9.04 30.14 9.04 34.16 2.14 34.16 10.34"/><path class="cls-1" d="M274.25,395.22a5.22,5.22,0,1,0,5.38,5.21A5.16,5.16,0,0,0,274.25,395.22Zm0,9.46a4.25,4.25,0,1,1,4.3-4.25A4.17,4.17,0,0,1,274.25,404.68Z" transform="translate(-231.09 -395.22)"/><polygon class="cls-1" points="65.3 12.64 65.3 9.41 63.7 9.41 63.7 0.09 62.63 0.09 62.63 9.41 57.96 9.41 57.96 0.09 56.89 0.09 56.89 9.41 52.2 9.41 52.2 0.09 51.13 0.09 51.13 10.34 64.29 10.34 64.29 12.64 65.3 12.64"/><polygon class="cls-1" points="76.06 10.34 76.06 0.09 75 0.09 75 4.66 68.58 4.66 68.58 0.09 67.49 0.09 67.49 10.34 68.58 10.34 68.58 5.61 75 5.61 75 10.34 76.06 10.34"/><polygon class="cls-1" points="88.14 10.34 88.14 0.09 87.15 0.09 80.59 8.59 80.59 0.09 79.52 0.09 79.52 10.34 80.5 10.34 87.07 1.86 87.07 10.34 88.14 10.34"/><polygon class="cls-1" points="91.59 0.09 91.59 10.34 92.65 10.34 92.65 5.64 94.99 5.64 98.61 10.34 99.86 10.34 95.83 5.07 99.64 0.09 98.46 0.09 94.99 4.69 92.65 4.69 92.65 0.09 91.59 0.09"/></svg>