<svg id="Слой_1" data-name="Слой 1" xmlns="http://www.w3.org/2000/svg" viewBox="0 0 53.71 40.91"><defs><style>.cls-1{fill:#618e97;}</style></defs><path class="cls-1" d="M321.34,400.32H274.8a3.59,3.59,0,0,0-3.58,3.59v33.73a3.59,3.59,0,0,0,3.58,3.59h46.54a3.59,3.59,0,0,0,3.59-3.59V403.91A3.59,3.59,0,0,0,321.34,400.32Zm2.09,37.32a2.1,2.1,0,0,1-2.09,2.09H274.8a2.09,2.09,0,0,1-2.08-2.09V403.91a2.09,2.09,0,0,1,2.08-2.09h46.54a2.1,2.1,0,0,1,2.09,2.09Z" transform="translate(-271.22 -400.32)"/><path class="cls-1" d="M274.88,437.49H321.6V403.73H274.88Zm1.5-32.26H320.1V436H276.38Z" transform="translate(-271.22 -400.32)"/><rect class="cls-1" x="8.23" y="7.86" width="1" height="24.61"/><rect class="cls-1" x="15.23" y="7.86" width="1" height="24.61"/><rect class="cls-1" x="18.23" y="7.86" width="1" height="24.61"/><rect class="cls-1" x="20.23" y="7.86" width="1" height="24.61"/><rect class="cls-1" x="22.23" y="7.86" width="1" height="24.61"/><rect class="cls-1" x="28.23" y="7.86" width="1" height="24.61"/><rect class="cls-1" x="32.23" y="7.86" width="1" height="24.61"/><rect class="cls-1" x="35.23" y="7.86" width="1" height="24.61"/><rect class="cls-1" x="40.23" y="7.86" width="1" height="24.61"/><rect class="cls-1" x="42.23" y="7.86" width="1" height="24.61"/><rect class="cls-1" x="44.23" y="7.86" width="1" height="24.61"/></svg>