<svg id="Слой_1" data-name="Слой 1" xmlns="http://www.w3.org/2000/svg" viewBox="0 0 52.38 52.32"><defs><style>.cls-1{fill:#618e97;}</style></defs><path class="cls-1" d="M320.68,399.38h-2.8a6.71,6.71,0,0,0-12.84,0H275.47a3.58,3.58,0,0,0-3.58,3.59V432.1a3.58,3.58,0,0,0,3.58,3.59H291.9V441h-3.32a2.4,2.4,0,0,0-2.17,1.93l0,2.48h-2.61v1.5H312v-1.5h-2.51v-2.16a2.23,2.23,0,0,0-2.27-2.14h-2.94v-5.45h16.36a3.58,3.58,0,0,0,3.58-3.59V403A3.58,3.58,0,0,0,320.68,399.38Zm-3.61,5.6H318v23H278V405h27.81a6.68,6.68,0,0,0,11.22,0Zm-5.61-8.87a5.21,5.21,0,1,1-5.21,5.21A5.22,5.22,0,0,1,311.46,396.11Zm-8.64,45h-4.45v1.5h8.83c.14,0,.83.1.83.65v2.16H287.89v-2.2c.06-.19.27-.71.69-.71h4.82v-6.84h9.42Zm19.94-9a2.09,2.09,0,0,1-2.08,2.09H275.47a2.09,2.09,0,0,1-2.08-2.09V403a2.09,2.09,0,0,1,2.08-2.09h29.3c0,.15,0,.29,0,.44a6.7,6.7,0,0,0,.36,2.16H276.54v26h43v-26h-1.7a6.45,6.45,0,0,0,.37-2.16c0-.15,0-.29,0-.44h2.54a2.09,2.09,0,0,1,2.08,2.09Z" transform="translate(-271.89 -394.61)"/><rect class="cls-1" x="282.32" y="414.97" width="15.71" height="1.5" transform="translate(-457.46 -154.08) rotate(-34.87)"/><rect class="cls-1" x="283.56" y="420.66" width="9.97" height="1.5" transform="translate(-459.99 -156.66) rotate(-34.55)"/><polygon class="cls-1" points="33.45 24.96 32.16 23.67 41.53 23.67 41.53 22.17 32.23 22.17 33.44 21.03 32.41 19.94 29.27 22.9 32.39 26.02 33.45 24.96"/><polygon class="cls-1" points="38.44 26.4 39.64 27.55 30.35 27.55 30.35 29.05 39.72 29.05 38.42 30.34 39.48 31.4 42.6 28.28 39.47 25.31 38.44 26.4"/><rect class="cls-1" x="21.76" y="36.41" width="1.61" height="1.5"/><rect class="cls-1" x="24.76" y="36.41" width="1.61" height="1.5"/><rect class="cls-1" x="27.76" y="36.41" width="1.61" height="1.5"/><path class="cls-1" d="M309.8,404.27h.8v-1h.93v-.69h-.93v-.64h1.45a2.1,2.1,0,0,0,1.47-.48,1.64,1.64,0,0,0,.52-1.28,1.67,1.67,0,0,0-.52-1.28,2.1,2.1,0,0,0-1.47-.48H309.8v4.16h-.92v.69h.92Zm.8-5.26h1.45a1.07,1.07,0,0,1,1.19,1.14,1.13,1.13,0,0,1-.3.81,1.15,1.15,0,0,1-.89.32H310.6Z" transform="translate(-271.89 -394.61)"/></svg>