<svg xmlns="http://www.w3.org/2000/svg" width="455.92" height="425" viewBox="0 0 455.92 425">
	<style type="text/css">
		.st0{fill:#1a150f;}
	</style>
	<path class="st0" d="M411.46,381.77C350.16,269.36 289.3,157.77 228.04,45.45C166.65,158.02 105.82,269.56 44.62,381.77ZM229.55,425C167.49,425 105.44,425.01 43.38,424.99C21.54,424.98 5.69,413.09 1.02,392.97C-1.32,382.86 0.45,373.21 5.43,364.08C34.73,310.45 64,256.8 93.26,203.14C126.1,142.93 158.89,82.69 191.79,22.52C205.09,-1.8 235.38,-7.48 255.21,10.69C258.81,13.99 261.87,18.18 264.22,22.49C326.35,136.15 388.38,249.87 450.34,363.63C463.94,388.6 451.64,417.21 424.59,423.8C420.29,424.85 415.68,424.91 411.22,424.91C350.66,424.98 290.11,424.96 229.55,424.96Z"/>
	<path class="st0" d="M249.13 -255.74L207.01 -255.74L207.01 -170.6L249.13 -170.6Z"/>
	<path class="st0" d="M249.2 -128.03L206.9 -128.03L206.9 -85.72L249.2 -85.72Z"/>
</svg>