<svg id="Слой_1" data-name="Слой 1" xmlns="http://www.w3.org/2000/svg" viewBox="0 0 20.88 20.88"><defs><style>.cls-1{fill:#55858f;}</style></defs><path class="cls-1" d="M302.84,410.33h-9.53a5.7,5.7,0,0,0-5.68,5.68v9.53a5.7,5.7,0,0,0,5.68,5.68h9.53a5.7,5.7,0,0,0,5.68-5.68V416A5.7,5.7,0,0,0,302.84,410.33ZM307,425.54a4.16,4.16,0,0,1-4.16,4.16h-9.53a4.16,4.16,0,0,1-4.16-4.16V416a4.16,4.16,0,0,1,4.16-4.16h9.53A4.16,4.16,0,0,1,307,416Z" transform="translate(-287.63 -410.33)"/><path class="cls-1" d="M298.07,415.35a5.45,5.45,0,1,0,5.45,5.44A5.45,5.45,0,0,0,298.07,415.35Zm3.94,5.46a4,4,0,1,1-3.94-4,4,4,0,0,1,3.94,4Z" transform="translate(-287.63 -410.33)"/><circle class="cls-1" cx="15.9" cy="4.9" r="0.91"/></svg>