<svg xmlns="http://www.w3.org/2000/svg" width="401.92" height="331.13" viewBox="0 0 401.92 331.13">
	<style type="text/css">
		.st0{fill:#9facc8;}
	</style>
	<path class="st0" d="M108.38,29.71C84.71,29.71 64.38,39.06 51.9,51.54C30.87,72.62 24.17,116.47 35.7,158.18C44.23,189 61.9,217.66 86.82,241.04C115.96,268.39 154.36,288.43 201,300.65C247.65,288.43 286.05,268.39 315.19,241.04C340.1,217.66 357.78,189.04 366.3,158.18C377.84,116.47 371.18,72.62 350.11,51.54C331.47,32.91 295.38,21.26 256.76,37.26C231.24,47.83 216,66.89 216,88.26C216,96.54 209.28,103.26 201,103.26C192.71,103.26 186,96.54 186,88.26C186,66.89 170.77,47.83 145.25,37.26C133.57,32.34 121.04,29.77 108.38,29.71M201,331.13C199.77,331.13 198.54,330.98 197.35,330.68C144.05,317.31 99.95,294.51 66.29,262.91C37.36,235.77 16.78,202.31 6.79,166.17C-0.4,140.17 -1.91,113.5 2.43,89.17C6.78,64.84 16.54,44.52 30.69,30.37C66.35,-5.28 119.69,-5.75 156.69,9.58C173.62,16.58 188,27 198.29,39.68C199.21,40.82 200.1,41.98 200.96,43.15C201.82,41.98 202.71,40.82 203.64,39.68C213.92,27 228.31,16.59 245.24,9.58C282.24,-5.75 335.62,-5.28 371.24,30.37C385.39,44.52 395.16,64.85 399.5,89.17C403.84,113.49 402.34,140.17 395.14,166.17C385.14,202.31 364.57,235.76 335.64,262.91C301.98,294.51 257.88,317.31 204.57,330.68C203.4,330.97 202.2,331.12 201,331.13"/>
</svg>