<svg id="Слой_1" data-name="Слой 1" xmlns="http://www.w3.org/2000/svg" viewBox="0 0 180.16 73.6"><defs><style>.cls-1{fill:#15535f;}</style></defs><polygon class="cls-1" points="17.44 48 8.94 36.87 16.97 26.36 14.5 26.36 7.17 36.07 2.23 36.07 2.23 26.36 0 26.36 0 48 2.23 48 2.23 38.08 7.17 38.08 14.81 48 17.44 48"/><path class="cls-1" d="M230.66,430.37a5.58,5.58,0,0,1-2-.43l-.65,1.85a7,7,0,0,0,2.66.59c2.13,0,4.11-1.18,5.53-3.83L246,410.33h-2.28L236,425l-7.55-14.66H226L234.77,427l-.62,1.05A4,4,0,0,1,230.66,430.37Z" transform="translate(-207.99 -383.97)"/><path class="cls-1" d="M251.31,419.61c-.27,7.3-1.33,10.45-4.08,10.45a4.27,4.27,0,0,1-1-.12l-.18,2a7.34,7.34,0,0,0,1.73.21c3.93,0,5.29-4,5.59-12.64l.25-7.24h10.45V432h2.26V410.33H251.62Z" transform="translate(-207.99 -383.97)"/><polygon class="cls-1" points="83.79 48 83.79 26.36 81.72 26.36 67.87 44.29 67.87 26.36 65.61 26.36 65.61 48 67.68 48 81.53 30.1 81.53 48 83.79 48"/><polygon class="cls-1" points="106.92 36.01 93.38 36.01 93.38 26.36 91.09 26.36 91.09 48 93.38 48 93.38 38.02 106.92 38.02 106.92 48 109.18 48 109.18 26.36 106.92 26.36 106.92 36.01"/><path class="cls-1" d="M338.32,426.2l2.6,5.78h2.41l-9.89-21.65h-2.26L321.29,432h2.38l2.59-5.78Zm-6-13.48,5.2,11.62H327.1Z" transform="translate(-207.99 -383.97)"/><path class="cls-1" d="M355.58,410.33h-8.11V432h2.29v-6.84h5.82c5.5,0,8.84-2.78,8.84-7.38S361.08,410.33,355.58,410.33Zm-.07,12.81h-5.75V412.31h5.75c4.33,0,6.62,2,6.62,5.45S359.84,423.14,355.51,423.14Z" transform="translate(-207.99 -383.97)"/><path class="cls-1" d="M377,410.33h-2.25L364.85,432h2.38l2.6-5.78h12.06l2.59,5.78h2.42Zm-6.34,14,5.2-11.62,5.19,11.62Z" transform="translate(-207.99 -383.97)"/><polygon class="cls-1" points="3.95 68.01 2.92 68.01 0.84 70.64 0.84 68.01 0 68.01 0 73.56 0.84 73.56 0.84 70.66 3.08 73.56 4.15 73.56 1.82 70.63 3.95 68.01"/><path class="cls-1" d="M216.25,455l-1.32-3H214l1.8,3.9-.2.45a.65.65,0,0,1-.64.45h-.4v.75h.58a1.26,1.26,0,0,0,1.16-.9l2-4.65h-.89Z" transform="translate(-207.99 -383.97)"/><path class="cls-1" d="M221.41,454.37a8.27,8.27,0,0,1-.07,1.22,2.08,2.08,0,0,1-.23.74.8.8,0,0,1-.76.45h-.15v.75h.35a1.37,1.37,0,0,0,1.28-.67,5,5,0,0,0,.4-2.37v-1.75h1.6v4.79h.84V452h-3.26Z" transform="translate(-207.99 -383.97)"/><polygon class="cls-1" points="20.85 72.03 20.85 68.01 20 68.01 20 73.56 20.77 73.56 23.26 69.53 23.26 73.56 24.1 73.56 24.1 68.01 23.33 68.01 20.85 72.03"/><polygon class="cls-1" points="30.51 70.38 28.26 70.38 28.26 68.01 27.42 68.01 27.42 73.56 28.26 73.56 28.26 71.13 30.51 71.13 30.51 73.56 31.36 73.56 31.36 68.01 30.51 68.01 30.51 70.38"/><path class="cls-1" d="M244,452l-2,5.55h.89l.39-1.11h2.19l.39,1.11h.88l-2-5.55Zm-.52,3.72.88-2.46.85,2.46Z" transform="translate(-207.99 -383.97)"/><path class="cls-1" d="M251.51,452h-2.1v5.55h.84v-2.18h1.26a1.81,1.81,0,0,0,1.29-.47,1.75,1.75,0,0,0,0-2.43A1.81,1.81,0,0,0,251.51,452Zm.67,2.36a1,1,0,0,1-.72.25h-1.21v-1.85h1.21a1,1,0,0,1,.72.25,1,1,0,0,1,0,1.35Z" transform="translate(-207.99 -383.97)"/><polygon class="cls-1" points="51.28 70.38 49.03 70.38 49.03 68.01 48.19 68.01 48.19 73.56 49.03 73.56 49.03 71.13 51.28 71.13 51.28 73.56 52.13 73.56 52.13 68.01 51.28 68.01 51.28 70.38"/><path class="cls-1" d="M265.56,454.16h-1.28V452h-.84v5.55h2.12a1.74,1.74,0,0,0,1.28-.47,1.61,1.61,0,0,0,.49-1.21,1.63,1.63,0,0,0-.49-1.22A1.77,1.77,0,0,0,265.56,454.16Zm.65,2.37a1,1,0,0,1-.72.25h-1.21v-1.86h1.21a1,1,0,0,1,.72.25.88.88,0,0,1,.27.68A.87.87,0,0,1,266.21,456.53Z" transform="translate(-207.99 -383.97)"/><rect class="cls-1" x="60" y="68.01" width="0.84" height="5.55"/><path class="cls-1" d="M275.05,451.4a1,1,0,0,0,.36-.79h-.63a.57.57,0,0,1-1.14,0H273a1,1,0,0,0,.36.79,1.54,1.54,0,0,0,1.68,0Z" transform="translate(-207.99 -383.97)"/><polygon class="cls-1" points="65.01 72.03 65.01 68.01 64.16 68.01 64.16 73.56 64.93 73.56 67.42 69.53 67.42 73.56 68.26 73.56 68.26 68.01 67.48 68.01 65.01 72.03"/><polygon class="cls-1" points="76.16 72.03 76.16 68.01 75.32 68.01 75.32 73.56 76.08 73.56 78.57 69.53 78.57 73.56 79.41 73.56 79.41 68.01 78.64 68.01 76.16 72.03"/><polygon class="cls-1" points="85.82 70.38 83.58 70.38 83.58 68.01 82.73 68.01 82.73 73.56 83.58 73.56 83.58 71.13 85.82 71.13 85.82 73.56 86.67 73.56 86.67 68.01 85.82 68.01 85.82 70.38"/><polygon class="cls-1" points="89.5 68.76 91.02 68.76 91.02 73.56 91.86 73.56 91.86 68.76 93.39 68.76 93.39 68.01 89.5 68.01 89.5 68.76"/><polygon class="cls-1" points="96.22 73.56 99.78 73.56 99.78 72.8 97.06 72.8 97.06 71.13 99.37 71.13 99.37 70.38 97.06 70.38 97.06 68.76 99.78 68.76 99.78 68.01 96.22 68.01 96.22 73.56"/><path class="cls-1" d="M312.9,452h-2.11v5.55h.84v-2.18h1.27a1.8,1.8,0,0,0,1.28-.47,1.75,1.75,0,0,0,0-2.43A1.8,1.8,0,0,0,312.9,452Zm.66,2.36a1,1,0,0,1-.72.25h-1.21v-1.85h1.21a1,1,0,0,1,.73.25.89.89,0,0,1,.26.67A.87.87,0,0,1,313.56,454.34Z" transform="translate(-207.99 -383.97)"/><polygon class="cls-1" points="112.66 70.38 110.41 70.38 110.41 68.01 109.57 68.01 109.57 73.56 110.41 73.56 110.41 71.13 112.66 71.13 112.66 73.56 113.51 73.56 113.51 68.01 112.66 68.01 112.66 70.38"/><polygon class="cls-1" points="116.82 73.56 120.38 73.56 120.38 72.8 117.66 72.8 117.66 71.13 119.97 71.13 119.97 70.38 117.66 70.38 117.66 68.76 120.38 68.76 120.38 68.01 116.82 68.01 116.82 73.56"/><polygon class="cls-1" points="122.9 68.76 124.43 68.76 124.43 73.56 125.27 73.56 125.27 68.76 126.8 68.76 126.8 68.01 122.9 68.01 122.9 68.76"/><rect class="cls-1" x="129.43" y="70.42" width="2.28" height="0.74"/><polygon class="cls-1" points="137.28 71.46 135.66 68.01 134.82 68.01 134.82 73.56 135.66 73.56 135.66 69.85 136.97 72.55 137.59 72.55 138.87 69.85 138.87 73.56 139.72 73.56 139.72 68.01 138.88 68.01 137.28 71.46"/><path class="cls-1" d="M352.4,452l-2,5.55h.89l.39-1.11h2.19l.39,1.11h.88l-2-5.55Zm-.51,3.72.87-2.46.85,2.46Z" transform="translate(-207.99 -383.97)"/><polygon class="cls-1" points="149.82 73.56 150.66 73.56 150.66 68.76 153.23 68.76 153.23 68.01 149.82 68.01 149.82 73.56"/><path class="cls-1" d="M364.8,452l-2,5.55h.89l.39-1.11h2.19l.39,1.11h.88l-2-5.55Zm-.52,3.72.87-2.46.85,2.46Z" transform="translate(-207.99 -383.97)"/><path class="cls-1" d="M372.83,454.66a1.26,1.26,0,0,0,.77-1.22,1.33,1.33,0,0,0-.51-1.09,2.16,2.16,0,0,0-2.6,0,2,2,0,0,0-.67,1.25h.85a1.19,1.19,0,0,1,.39-.7,1,1,0,0,1,.73-.26,1.06,1.06,0,0,1,.7.21.77.77,0,0,1,.26.61.85.85,0,0,1-.23.63.9.9,0,0,1-.65.22h-.73v.7h.71a1.06,1.06,0,0,1,.73.23.83.83,0,0,1,.25.66.79.79,0,0,1-.29.66,1.23,1.23,0,0,1-1.5,0,1.31,1.31,0,0,1-.39-.69h-.84a2,2,0,0,0,.67,1.24,1.91,1.91,0,0,0,1.29.45,2.07,2.07,0,0,0,1.37-.45,1.42,1.42,0,0,0,.54-1.17A1.29,1.29,0,0,0,372.83,454.66Z" transform="translate(-207.99 -383.97)"/><polygon class="cls-1" points="169.65 72.03 169.65 68.01 168.81 68.01 168.81 73.56 169.57 73.56 172.06 69.53 172.06 73.56 172.9 73.56 172.9 68.01 172.13 68.01 169.65 72.03"/><polygon class="cls-1" points="179.31 70.38 177.06 70.38 177.06 68.01 176.22 68.01 176.22 73.56 177.06 73.56 177.06 71.13 179.31 71.13 179.31 73.56 180.16 73.56 180.16 68.01 179.31 68.01 179.31 70.38"/><polygon class="cls-1" points="11.53 13.82 11.53 0.12 0 0.12 0 13.82 1.43 13.82 1.43 1.37 10.1 1.37 10.1 13.82 11.53 13.82"/><path class="cls-1" d="M223,390.94a7.2,7.2,0,1,0,7.2-7A6.89,6.89,0,0,0,223,390.94Zm12.94,0a5.76,5.76,0,1,1-5.74-5.67A5.56,5.56,0,0,1,235.89,390.94Z" transform="translate(-207.99 -383.97)"/><polygon class="cls-1" points="45.65 13.82 47.04 13.82 47.04 0.12 45.85 0.12 39.95 10.28 34 0.12 32.81 0.12 32.81 13.82 34.2 13.82 34.2 2.92 39.58 12.08 40.27 12.08 45.65 2.86 45.65 13.82"/><path class="cls-1" d="M265.66,384a7,7,0,1,0,7.19,7A6.9,6.9,0,0,0,265.66,384Zm0,12.65a5.68,5.68,0,1,1,5.74-5.68A5.57,5.57,0,0,1,265.66,396.62Z" transform="translate(-207.99 -383.97)"/><polygon class="cls-1" points="87.25 16.89 87.25 12.57 85.11 12.57 85.11 0.12 83.69 0.12 83.69 12.57 77.44 12.57 77.44 0.12 76.01 0.12 76.01 12.57 69.75 12.57 69.75 0.12 68.32 0.12 68.32 13.82 85.9 13.82 85.9 16.89 87.25 16.89"/><polygon class="cls-1" points="101.64 13.82 101.64 0.12 100.21 0.12 100.21 6.22 91.63 6.22 91.63 0.12 90.18 0.12 90.18 13.82 91.63 13.82 91.63 7.5 100.21 7.5 100.21 13.82 101.64 13.82"/><polygon class="cls-1" points="117.77 13.82 117.77 0.12 116.45 0.12 107.68 11.47 107.68 0.12 106.25 0.12 106.25 13.82 107.56 13.82 116.34 2.49 116.34 13.82 117.77 13.82"/><polygon class="cls-1" points="122.38 0.12 122.38 13.82 123.79 13.82 123.79 7.54 126.92 7.54 131.76 13.82 133.42 13.82 128.04 6.77 133.13 0.12 131.56 0.12 126.92 6.26 123.79 6.26 123.79 0.12 122.38 0.12"/></svg>