<svg id="Слой_1" data-name="Слой 1" xmlns="http://www.w3.org/2000/svg" viewBox="0 0 167.46 133.94"><defs><style>.cls-1{fill:#15535f;}</style></defs><path class="cls-1" d="M244.46,427.88a1.71,1.71,0,0,0,0,.46.07.07,0,0,0,0,.05l2.64,8.15a3,3,0,0,0-1.85,1.61,3.72,3.72,0,0,0,.87,3.51,5.59,5.59,0,0,0,.84,3.6,3.78,3.78,0,0,0,.08,1.35c.15.4.43,1.16,2.11,2a4.87,4.87,0,0,0,.62,2.07,3.41,3.41,0,0,0,2.43,1.6h.11l.26,0,6.72,16.53a.15.15,0,0,0,.06.09,5.18,5.18,0,0,0,3,1.19,3.3,3.3,0,0,0,1.21-.22c2.15-.82,2.7-3.59,2.72-3.71a.25.25,0,0,0,0-.12l-2.17-5.79a35.16,35.16,0,0,1,5.55,6,64.26,64.26,0,0,1,6.66,11,94.56,94.56,0,0,0-1.27,9.66c0,1.19-.06,2.05-.07,2.68h1.65c.07-2.5.35-12.1.55-14.66l-.45-.05s-.09.48-.22,1.23c-.45-1.05-1.34-2.85-3.06-6A54.62,54.62,0,0,0,263,457.05l-.22-.61a29.55,29.55,0,0,0,2.24-3.25c1.58-2.48,1.77-6.33,1.78-7.79,1.57,1.66,7.45,7.88,11,11.27a41.22,41.22,0,0,0,9.51,6.48,9.34,9.34,0,0,0,3.27,2.88l.46.21a12.06,12.06,0,0,0-2.16-.05c-2.67.2-6.33.47-8,9.18a53.62,53.62,0,0,0-.69,14.24h1.16c-.05-2.48-.11-6.95.15-9.35.39-3.62,2.26-10.79,4.6-12.23s8.73-.57,8.84-.55l.15,0h.34a25.76,25.76,0,0,0,4.38-.56,21.27,21.27,0,0,0,8.51-3.53,10.78,10.78,0,0,0,5.83,1.42,21.7,21.7,0,0,0,6.92-1.25,44.35,44.35,0,0,0,14-8,20.06,20.06,0,0,0,1.36,4.47L332,470.16l0,0c-.44.33-10.91,8.1-13.21,10.81-1.93,2.25-2,6.71-1.9,8.62h1.46a1.3,1.3,0,0,1,0-.27q0-.13,0-.48c-.12-1.27-.43-4.66,1.44-6.78s9-8.1,11.53-10.17l-4.08,9.53c-.05.14-1.33,3.45-.17,5.74a3.67,3.67,0,0,0,2.47,1.88,4.08,4.08,0,0,0,1,.13c4.11,0,6.7-6.54,6.82-6.85L345,457.5a1.27,1.27,0,0,0,.34.05,2.6,2.6,0,0,0,1.9-1.38,3.69,3.69,0,0,0,.36-1.61c1.23-.72,1.42-1.32,1.51-1.64a2.71,2.71,0,0,0,0-1,4.64,4.64,0,0,0,.65-2.08,2,2,0,0,0-.19-.72,2.93,2.93,0,0,0,.47-2.75,2,2,0,0,0-1-.95l8.74-26.45c.09-.07.28-.18.42-.12.34.15,4.53,1.7,4.7,1.77a.23.23,0,0,0,.28-.1s.15-.27.34-.56l1.07-1.84c2.57-4.44,9.42-16.25,13-22.14,2.41-3.94,3.56-5.66,4.05-6.39s.51-.76.31-1l-.16.15.15-.16c-.48-.48-18.64-7.77-22.28-9.22a.23.23,0,0,0-.26.06,1.14,1.14,0,0,0-.11.3c0,.07-1.07,3.8-2.54,8.42a1.12,1.12,0,0,0-.18-.21,13.36,13.36,0,0,0-5.73-4.71,27.83,27.83,0,0,0-3.44-1c-1.25-6.14-4.24-14.1-11.31-20-12.24-10.24-33.49-6.28-39.86-2.33a23.87,23.87,0,0,0-7.77,7.68c-2.88.25-14.61,2-17.39,14.46-3.25,14.52,10.45,19.39,10.59,19.43a47.12,47.12,0,0,0,5.35,1l-.18,2.75a6.61,6.61,0,0,1-2.44-2.25l0,0v0a.24.24,0,0,0-.11-.06h-.15a.24.24,0,0,0-.1.1h0v0a.06.06,0,0,0,0,0v0a.92.92,0,0,0,0,.31,18.38,18.38,0,0,0,.8,3.42s0,.05,0,.07,0,.1-.08.24c-.26.36-1.36,1.26-6.16,1.87-6.8.87-11.1-6-11.14-6l0-.06h0a.17.17,0,0,0-.12,0h0l-.09,0a.21.21,0,0,0-.12.14h0c0,.1-.67,2.56,3.71,9.48,3.54,5.59,7.4,7.9,8.83,8.6a16.92,16.92,0,0,0-2.18.79,11.37,11.37,0,0,1-6.88,0,8.44,8.44,0,0,0-3.69-.84h0l0,0,0,0,0,0,0,0,0,0h0v.08h0v0s0,0,0,.05l0,0s0,0,0,0l0,0s0,0,0,0a23,23,0,0,1,6.27,6.07l3.11,4.43-1.81,1.3c-2.71,1.94-9.48,3.06-9.55,3.07s-.25,0-.25.16.05.21.23.28l.18.07a43.28,43.28,0,0,1,7.56,3.71,20.3,20.3,0,0,1,2.42,2,11.15,11.15,0,0,1,.33,2.74,5.44,5.44,0,0,1-1.63,3.58l.8-.08a16.75,16.75,0,0,1,3.79,0,18.32,18.32,0,0,1,1.78.48,16.76,16.76,0,0,1,.66,4.09v1.64a9.59,9.59,0,0,1,3.2-.36,15.88,15.88,0,0,1,3.6.57c.54.35,1,.68,1.47,1l-.21,3.25-.23-.28-.6-.66-.07.15-1.29,2.85a40.56,40.56,0,0,1-5.92-3.85c-4.22-3.18-13.46-13.9-13.55-14a.41.41,0,0,0-.11-.07,1,1,0,0,0-.89.12,1.23,1.23,0,0,0-.43.87v.07c-1.19-2.08-4.85-8.43-5.65-9.44-1.1-1.39-5.48-.91-5.53-.91l-.08,0-3.6-7.77-.05-.07a2.77,2.77,0,0,0-.7-.44c.18-2.72,1.75-29.16-4.51-47.26S225.76,362.46,224,362.8h-.07l-.23.06,0,0a9.65,9.65,0,0,0-4.2,3.23c-2.47,3.05-4.06,7.49-4.73,13.21-.77,6.55,2.83,16.5,9.87,27.28C230.8,416.11,238.31,424.13,244.46,427.88Zm50.65,38.42-.08-3.14s-3.81-1.05-5.49-3l.19-3.45c1,.81,1.82,1.5,2.44,2.06a6.58,6.58,0,0,0,2.63,1.75,5.69,5.69,0,0,0,1.31.11,57.41,57.41,0,0,0,9.92-1.33l1-.24a11.15,11.15,0,0,1-4.4,2.49c-2.87.74-5.87,1.41-5.9,1.42l-.12,0Zm12.51-3.43a16,16,0,0,1-7,3.17,45.89,45.89,0,0,1-4.67.44l1.15-2.58c.85-.16,5.86-1.15,8.23-2.52a11.73,11.73,0,0,0,2.44-1.83Zm28-8.79c-.28-.14-.73.12-1,.29a.1.1,0,0,0-.05,0,29.86,29.86,0,0,1-16.4,8.85c-7.79,1.48-9.32-.91-9.48-1.2l0-3.43.4-.11a24,24,0,0,1,4.17,3A7.24,7.24,0,0,1,314.5,463a19.42,19.42,0,0,1,1.12-3.9,6.56,6.56,0,0,1,.38-.65,14.49,14.49,0,0,1,1.89.94,7.57,7.57,0,0,1,2.07,1.8l.44.63,0-.77a5.52,5.52,0,0,1,.63-3.27,6,6,0,0,0,1.63,1.7,5,5,0,0,0,2,.76c.15,0,.16-2.06.58-2.8a6.59,6.59,0,0,0,.4-5.13,21.63,21.63,0,0,0,2.45.16,8.24,8.24,0,0,0,2.2-.24c1.77-.53,2.23-.59,2.85-.38a5,5,0,0,0,1.53.24.11.11,0,0,0,.08,0h0l.06,0h0a.2.2,0,0,0,0-.08v-.05a.2.2,0,0,0,0-.11h0a19.08,19.08,0,0,1-1.47-3.47c-.66-2-.39-5.45-.29-6.52a8.54,8.54,0,0,0,4.56.93,19.08,19.08,0,0,1,4.63.08h.05l.09,0h0l.07-.06h0v0h0a0,0,0,0,0,0,0v0h0v-.07h0s0,0,0,0a0,0,0,0,1,0,0h0l0,0s0,0,0,0h0s-3.79-2.76-4.19-5.15c-.12-.7-.21-1.65-.31-2.74-.26-2.73-.59-6.12-1.58-7.77.13-.42.32-1,.59-1.76a3.63,3.63,0,0,1,.18-.43c.7.31,2.5.73,6.67,0a14.92,14.92,0,0,0,7.62-3.74l-9.52,24.65a2.23,2.23,0,0,0-2.06.57c-.6.6-1.8,3.19-3,5.79-.3.66-.54,1.19-.62,1.32s-.42.66-.65,1Zm-24.29,4.22a40.65,40.65,0,0,0,4.31-.75,7.8,7.8,0,0,0-1.27,1.86,7.55,7.55,0,0,0-.15,1.9A30,30,0,0,0,311.29,458.3Zm5.84-1.15a22.09,22.09,0,0,0,3.76-1.43,37.91,37.91,0,0,0-1.41,3.76,8.19,8.19,0,0,0-1.5-1.36C317.51,457.81,317,457.25,317.13,457.15Zm7,2.34h0a3.73,3.73,0,0,1-1.83-1.74,10.56,10.56,0,0,1-.44-1.51,3.11,3.11,0,0,1,1.07-2,9.74,9.74,0,0,0,2-2.78l0,.71a17.7,17.7,0,0,1-.33,4.33A9.12,9.12,0,0,0,324.14,459.49Zm7-21.26c-.06-.05-5.61-5-5.47-9a15.58,15.58,0,0,1,.39-3.62,13.6,13.6,0,0,0,4.61-1.25c.61.31,4.4,2.31,5,5.21.15.76.28,1.65.42,2.6.47,3.17,1,6.77,2.6,8.12A27.13,27.13,0,0,0,341,442a14.75,14.75,0,0,0-3.13-.37,35.47,35.47,0,0,1-4.89-.44h0a0,0,0,0,0-.05,0h0l0,0s0,0,0,0l0,0,0,0v0c0,.05-.7,1.28-.6,5.6a7.25,7.25,0,0,0,1,4,8.91,8.91,0,0,0-3.15.48,18.72,18.72,0,0,1-4.65.46l-.28-.43a13.07,13.07,0,0,0,1.18-3.9,6.39,6.39,0,0,0,.95.09h.08c2.23,0,4.13-2.27,4.29-4.26a4.25,4.25,0,0,0-1.6-3.69l-.19-.09a9.33,9.33,0,0,0-.11-1.49,3.16,3.16,0,0,0,1.36.61h.05a.23.23,0,0,0,.18-.16A.22.22,0,0,0,331.18,438.23ZM320.6,419.59l-1.37-3.13h0c-.06-.16-1.12-2.23-8.84-2.13a12.17,12.17,0,0,0-7.94,2.86c1.37-2.05,4.7-6.5,7.66-6.5h0c5.72.08,10.22,5.5,10.27,5.55h0l0,0,0,0h.08a10.3,10.3,0,0,1,3.92,1.21,12.62,12.62,0,0,0,6,1.52l.86,0a11.91,11.91,0,0,0,5.83-1.16,10.87,10.87,0,0,1-1.77,2.35,14.67,14.67,0,0,1-8.55,4C324.13,424.71,321.86,421.72,320.6,419.59Zm15.57,36.46-.13-.74c.28-.52,2.18-4,3-5.91s1.52-2.86,2.35-3.25c.58-.27,2.2,1.6,2.29,1.67s.06,1.55-.55,1.8a6.28,6.28,0,0,1-2.07,0,.23.23,0,0,0-.29.12l-3.8,8.87A15,15,0,0,1,336.17,456.05Zm10.09.34a1.6,1.6,0,0,1-1.53.12,1,1,0,0,1,0-1,1.5,1.5,0,0,1,.32-.36,2.43,2.43,0,0,0,.49.06,3.08,3.08,0,0,0,1.23-.28A2,2,0,0,1,346.26,456.39Zm1.12-2.58a2.78,2.78,0,0,1-2.68.36.64.64,0,0,1,.19-.76,2.2,2.2,0,0,1,.51-.37,4,4,0,0,0,1.15.18,3.63,3.63,0,0,0,1.21-.21,2.81,2.81,0,0,0,.52-.26A2.21,2.21,0,0,1,347.38,453.81Zm.49-1.78a2.47,2.47,0,0,1-2.42.07c0-.05,0-.1,0-.15a.78.78,0,0,1,.43-.87,10,10,0,0,1,1-.56l.37-.18a.87.87,0,0,0,.14-.12,5.46,5.46,0,0,0,1.5-.57A2.91,2.91,0,0,1,347.87,452Zm1.49-5.13a1.23,1.23,0,0,1,0,.19,2.2,2.2,0,0,1-.33,1.36,8.49,8.49,0,0,1-2.19.86.82.82,0,0,1-.68-.15.41.41,0,0,1-.06-.42c.12-.56.81-.83,1.41-.9S349.12,447.47,349.36,446.9Zm11.06-65.79,19.92,8.17c-1.84,2.51-7.35,11.81-11,18l-1,1.64-5.94,10-4.26-1.61h-.07c-.22,0-1,0-1.11.41-.08.2-6.17,18.26-9.88,29.26a2.76,2.76,0,0,0-1.34.48,2.49,2.49,0,0,0-.65,2.25.9.9,0,0,0,.5.51h0a1.79,1.79,0,0,0-1.2,2.18.19.19,0,0,0,.07.11c-.46.43-1,1.16-.68,1.86l0,0a3.07,3.07,0,0,0,.51.41,1.67,1.67,0,0,0-.45,1.78l-8.22,26.15c0,.05-2.45,4.74-4.69,4.95a3,3,0,0,1-2.68-1.05,3.49,3.49,0,0,1-.48-3.32c.78-2.57,12-28.3,13.83-32.6a5,5,0,0,0,2.11-.49c.85-.52,1-2.49,1-2.71a17.53,17.53,0,0,0-1.64-1.71l11.27-29.15.23-.62a.22.22,0,0,0-.12-.28l-6-2.53a2.55,2.55,0,0,1,.18-1.26l.26-.58c2.76-6.19,4.57-10.3,5.36-12.22C355.52,396.15,359.8,383,360.42,381.11Zm-82.19,17c-2.62-1.85-8.36-7.35-4.91-18.39,2.47-7.91,11.09-9.09,13.63-9.28a18.78,18.78,0,0,0-1.39,4.41l.44.08a23.42,23.42,0,0,1,6.81-10.77c9.08-8.26,22.34-7.78,31.86-5.92,11.65,2.28,16.8,11.28,19.07,18.44a49.26,49.26,0,0,1,2.16,15.19l0,.29,2.39-.46v-.18a37,37,0,0,0-.44-7c5.87.94,8,4.07,8.48,5.05-1.26,3.86-2.74,8.11-4.14,11.28-3.36,7.61-5.45,12.39-5.45,12.39s0,0,0,0-.07.63,1.06,1.25c.83.46,3.64,1.55,4.86,2-.16.36-.43,1-.88,2.07-1.19,2.88-6.67,4.93-6.67,4.93-4.48,1.05-6.65.43-7.48,0,.06-.1.12-.19.18-.3a68.75,68.75,0,0,1,5.19-6.82.23.23,0,0,0,0-.29.5.5,0,0,0-.22-.15c3-.21,3.12-1.76,3.12-1.83a.2.2,0,0,0-.09-.19.23.23,0,0,0-.21,0c-2.5.92-3.51.92-8.35,0a15,15,0,0,1-8-4.8c.5,0,1,.07,1.46.07a13.4,13.4,0,0,0,6.17-1.31.23.23,0,0,0-.16-.42c-.1,0-10.34,2.1-16.11-3.13a22.49,22.49,0,0,1-7.39-14.32.21.21,0,0,0-.22-.2h0a.22.22,0,0,0-.22.2c0,.12-1.26,12.37,9.63,17.28a21.22,21.22,0,0,0,6.11,1.76c.14.82,1.05,4.07,7.39,5.86a24,24,0,0,0,6.19,1.06,2.65,2.65,0,0,0-1,.62,34,34,0,0,0-5.69,7.49c-.19.39-.35.75-.47,1.07a10.14,10.14,0,0,0-3.47-1.28c2.68-1.35,5.06-3.31,5.92-5a3.87,3.87,0,0,0,.61-1.74.14.14,0,0,0,0-.06h0a.32.32,0,0,0-.1-.1h0l-.08,0h-.06a.17.17,0,0,0-.12.06h0a13.53,13.53,0,0,1-3.4,1.06c-3.35.62-7.5-.69-9.68-1.53a10.12,10.12,0,0,0-3.82-.74,25.55,25.55,0,0,0-3.7-3.82c-2.95-2.43-5.71-3.24-8-2.37l-.12.05c-.14-.3-.4-.88-.53-1.11a7.73,7.73,0,0,0-4.47-3.61c-2-.49-2.29-.44-5.43.2-1,.21-2.43.49-4.31.84a11.51,11.51,0,0,1-5.95-.28l-.19-7c3.15-1.6,7.26-2.18,12.22-1.7l.4,0c.47,0,.72,0,.83-.22a.3.3,0,0,0,0-.33l0-.05c-.06-.06-1.41-1.34-6.56-.85a13.57,13.57,0,0,0-7.6,3l-.05.75C286.29,399.58,281.76,400.6,278.23,398.11Zm12.13,9.33a24.39,24.39,0,0,0,6.14-.88,17.53,17.53,0,0,1,6-.71c1.53.18,3.75,1,5.63,4.17l0,.05a12.05,12.05,0,0,0-2.78,2,2.81,2.81,0,0,0-2.36.28l-.33.17a13.14,13.14,0,0,1-7.94,1.65c-3.77-.46-7.56-4.25-9.05-7.65-.33-.75-.57-1.34-.75-1.81A6.73,6.73,0,0,0,290.36,407.44Zm-16.88,18.08a14.79,14.79,0,0,0-2-1.93,8.37,8.37,0,0,0,1.41.11,9.74,9.74,0,0,0,3.89-.74c1.22-.64,3.49-1.65,3.51-1.66l0,0,0,0h0a.2.2,0,0,0,.05-.09v0a.17.17,0,0,0,0-.1h0c-.67-2.06-2.44-3.48-4.5-5.11a42.24,42.24,0,0,1-3.43-3,20.1,20.1,0,0,1-4-6.93,11,11,0,0,0,8.61,4.38h.2a13.72,13.72,0,0,0,8-2.51,12.19,12.19,0,0,0,4.61,5.8,11.54,11.54,0,0,0-1.47.82c-.69.41-1.63,1-3,1.75-3.3,1.84-5.23.62-5.31.57a.21.21,0,0,0-.3.05.23.23,0,0,0,0,.3,4.21,4.21,0,0,0,2.36,1.15,20.78,20.78,0,0,0-.43,4.46A6.38,6.38,0,0,1,281,426a8.08,8.08,0,0,1-1.08,1.1,14.54,14.54,0,0,0-3.4,4.09A14.23,14.23,0,0,0,273.48,425.52Zm-2.93,12.38a18.14,18.14,0,0,0-3.15-1.13,18.13,18.13,0,0,0,3.33-.57,11.64,11.64,0,0,0,5.12-3.22,15.57,15.57,0,0,0-.32,8.45A20.39,20.39,0,0,0,270.55,437.9Zm6.71,9.86a8.56,8.56,0,0,0-2,.16,6.93,6.93,0,0,0,.62-1.05,8,8,0,0,0,.42-3.25,22.41,22.41,0,0,0,2.68,4.43A5.86,5.86,0,0,0,277.26,447.76Zm6.6,5.72a6.52,6.52,0,0,0-2.31.23,12.32,12.32,0,0,0-.55-3.55,37.89,37.89,0,0,0,4.32,3.54A7.32,7.32,0,0,0,283.86,453.48Zm4.18.86c-.05,0-5.15-3.62-6.87-5.27a15.71,15.71,0,0,1-4.84-11.8c.12-6.08,3.67-8.36,3.74-8.4s2.4-2.12,2.41-3.92a38.85,38.85,0,0,1,.44-5.58,4.35,4.35,0,0,1,.33-1.05,9.81,9.81,0,0,0,4.35-2.17l.31-.24a12.64,12.64,0,0,1,3.36-1.5,11,11,0,0,0,1.5.51,17.53,17.53,0,0,0,4.32.59,9.85,9.85,0,0,0,6.69-2.31,3.43,3.43,0,0,1,.41-.3l.51-.18a17.42,17.42,0,0,0-3.3,5.28,1.18,1.18,0,0,0,0,.46.21.21,0,0,0,.2.12h0a2.18,2.18,0,0,0,.79-.16l.07-.05a16.29,16.29,0,0,1,9.4-2.94c5,0,6.67,1.05,6.94,1.25a28.52,28.52,0,0,0,1,3.27c.79,2.17,2.33,5.15,4.93,5.58a17.49,17.49,0,0,0-.34,3.9c.08,3,1,5.34,2.75,6.73.5.39.93.73,1.31,1a10.81,10.81,0,0,1,.43,1.72,7.15,7.15,0,0,1,.08,1h0s0,.05,0,.07l0,0,0,0h0s0,0,0,0l0,0a3.25,3.25,0,0,1,1.31,1.94,3.52,3.52,0,0,1-.77,2.7,4,4,0,0,1-2.47,1.83,2.16,2.16,0,0,1-1.55-.33.64.64,0,0,0-.56-.08.32.32,0,0,0-.16.28.6.6,0,0,0,.19.46l0,0a9.67,9.67,0,0,1-3.39,6.37c-3.44,2.76-10.3,4-11.64,4.18-.5.08-12.25,1.94-14.61,1.44C293.22,458.46,288.1,454.39,288,454.34Zm0,5.77.78,1a14.13,14.13,0,0,0,3.79,2.46l1.5.49.09,2.29a11.29,11.29,0,0,1-6-3.57l-.88-1Zm-40.41-21.87.16.49a2.37,2.37,0,0,1-.72-.12A2.52,2.52,0,0,1,247.65,438.24Zm-1.62.81a1,1,0,0,1,.08-.46s0,0,0,0c.25.73,1.42,1.11,2.48,1.15.8,0,1.75.35,2,1.1a.66.66,0,0,1-.05.61,1.15,1.15,0,0,1-.94.29,11.25,11.25,0,0,1-3-.93A3,3,0,0,1,246,439.05Zm.86,3.17a6.7,6.7,0,0,0,2.12.66.72.72,0,0,0,.19.14,3.56,3.56,0,0,0,.49.21,13.16,13.16,0,0,1,1.39.63,1.1,1.1,0,0,1,.68,1.16v.22a1.48,1.48,0,0,1-.67.36,3.51,3.51,0,0,1-2.6-.19C247.22,444.75,246.93,442.9,246.89,442.22Zm2.39,5.47a2.66,2.66,0,0,1-1.34-1.51,2.84,2.84,0,0,0,.83.37,4.41,4.41,0,0,0,1.26.18,5,5,0,0,0,1.81-.36,3.92,3.92,0,0,1,.75.45.92.92,0,0,1,.32,1.07A3.62,3.62,0,0,1,249.28,447.69Zm3.82,3.22a2.09,2.09,0,0,1-2.13,0,2.89,2.89,0,0,1-.9-2h0a4.2,4.2,0,0,0,1.46.28,3.56,3.56,0,0,0,.9-.12,2.73,2.73,0,0,1,.48.46A1.42,1.42,0,0,1,253.1,450.91Zm2.77-13.63H256c2.39-.3,2.89-.36,3-.73a.91.91,0,0,0,0-.4.23.23,0,0,0-.21-.16,15,15,0,0,0-3.43.27l-.3-.65c1.23-.13,3.45-.23,4.1.4s4.45,7,6.4,10.39c-.07.92-.19,2.09-.35,3.37-.29,2.26-2.32,4.17-3.08,4.81l-4.58-12.24a5.36,5.36,0,0,1,.83.09,12.46,12.46,0,0,1,2.87,1,.19.19,0,0,0,.1,0,.23.23,0,0,0,.2-.11c.18-.32.38-.95-.05-1.32s-2.24-.56-3.72-.66c-.31,0-.76,0-1.24,0a7.5,7.5,0,0,1-1.91-.07,7.45,7.45,0,0,1-1-2.74C253.64,438.41,254,437.51,255.87,437.28Zm-1.9-.55c-1.39.77-1.65,1.73-1.41,2.4,0,.1.07.27.12.47.2.91.57,2.6,1.84,2.82a4.76,4.76,0,0,0,1.4,0l8.91,23.64a2.66,2.66,0,0,1-1.56,2.58,3.31,3.31,0,0,1-3.06-.85l-6.66-16.09a2.69,2.69,0,0,0,.41-.36l0,0a2.05,2.05,0,0,0-.64-2.62,2.93,2.93,0,0,0,.68-.61l0-.05c.39-.93-.47-1.83-1.1-2.33l0,0a.23.23,0,0,0,.08-.14,2.27,2.27,0,0,0-1.71-2.66l-.13-.05h0a1.13,1.13,0,0,0,.7-.75,3.12,3.12,0,0,0-1-2.8,2.9,2.9,0,0,0-1.41-.45l-3.51-10.31a1.66,1.66,0,0,1,1.52-1.73,2.86,2.86,0,0,1,2.43.72Zm-12.26-36c-4.83-16.24-10-28.08-15.26-35.21,13.27,7.5,18.41,22.92,20.37,34.67a108.72,108.72,0,0,1,1.08,25.12C247.27,422.27,245.08,412.07,241.71,400.73Zm-10-36c5.55,1.86,9.87,6.86,12.5,14.45,2.42,7,3.63,15.26,4.22,22.67-.09-.62-.18-1.23-.29-1.84-2.94-17.61-10.49-30.06-21.84-36.08A15.7,15.7,0,0,1,231.72,364.71Zm8.69,36.39c2.9,9.76,4.93,18.66,5.83,22.85-11.36-18.38-16.62-33.71-19-43.46a85.42,85.42,0,0,1-2.47-15C230.1,372.34,235.5,384.59,240.41,401.1Zm3.35,21.37c-2.1-2.42-5-5.87-8-9.89-5.35-7.18-12.12-17.65-14-26.73-2.65-12.61-.06-18.43,1.57-20.69C223.64,371.26,226,392.88,243.76,422.47Zm-27.69-43c.82-7,3-11,5-13.09-1.62,3.46-2.76,9.5-.61,19.74,3.32,15.81,20.77,35.63,24.82,40.05-.07.07-.15.13-.21.2a1.28,1.28,0,0,0-.14.21c-6-3.74-13.26-11.59-19.28-20.89C218.94,395.34,215.36,385.54,216.07,379.48Z" transform="translate(-214.63 -355.68)"/><path class="cls-1" d="M285.61,422a23.12,23.12,0,0,1,4.35-.92,10.24,10.24,0,0,1,3.13.65s1.17-1.82-1.81-1.72a13.38,13.38,0,0,0-5.67,1.72C285.43,422,285.61,422,285.61,422Z" transform="translate(-214.63 -355.68)"/><path class="cls-1" d="M315.82,428.51a7.24,7.24,0,0,1,2.34,2.21c.28.67.38,1.29.65,1.44a.42.42,0,0,0,.57-.12,14.87,14.87,0,0,0-2.7-4.45c-1.57-1.74-1.94-1.5-1.94-1.5a1.42,1.42,0,0,0-.93,1.16C313.67,428.18,315.25,428.23,315.82,428.51Z" transform="translate(-214.63 -355.68)"/><path class="cls-1" d="M296.79,441.08a2.15,2.15,0,0,0,.45,0,4.75,4.75,0,0,0,1.12-.16.22.22,0,0,0-.1-.43,3.27,3.27,0,0,1-2.38-.56,2.29,2.29,0,0,1-.62-2,3.5,3.5,0,0,1,1.8-3.07.22.22,0,0,0,.12-.29.22.22,0,0,0-.29-.12s-2.74,1.06-2.58,3.5A3,3,0,0,0,296.79,441.08Z" transform="translate(-214.63 -355.68)"/><path class="cls-1" d="M288.78,469.69c-1.38-.27-2.76.92-3.1,2.65a3.61,3.61,0,0,0,.29,2.33,2.29,2.29,0,0,0,1.6,1.28,2.58,2.58,0,0,0,.39,0,2.38,2.38,0,0,0,1.57-.64,3.65,3.65,0,0,0,1.13-2.05C291,471.57,290.15,470,288.78,469.69Zm1.18,3.36c-.25,1.31-1.27,2.23-2.27,2a1.65,1.65,0,0,1-1.13-.92,2.89,2.89,0,0,1-.22-1.81,2.33,2.33,0,0,1,2-2.06l.26,0a1.61,1.61,0,0,1,1.13.92A2.76,2.76,0,0,1,290,473.05Z" transform="translate(-214.63 -355.68)"/><path class="cls-1" d="M301.5,476a3.21,3.21,0,1,0-2.86-3.19A3,3,0,0,0,301.5,476Zm-.05-5.73a2.45,2.45,0,1,1-2.13,2.43A2.29,2.29,0,0,1,301.45,470.28Z" transform="translate(-214.63 -355.68)"/><path class="cls-1" d="M288.06,482.36a2.54,2.54,0,0,0-2.16.66,4,4,0,0,0-1.25,2.27c-.37,1.91.56,3.7,2.08,4a3,3,0,0,0,.42,0,3.37,3.37,0,0,0,3-3,4,4,0,0,0-.31-2.59A2.58,2.58,0,0,0,288.06,482.36Zm1.36,3.73c-.29,1.48-1.44,2.5-2.56,2.28s-1.81-1.59-1.53-3.07,1.44-2.51,2.56-2.29S289.7,484.61,289.42,486.09Z" transform="translate(-214.63 -355.68)"/><path class="cls-1" d="M302.24,482.3a3.55,3.55,0,1,0,3.16,3.52A3.35,3.35,0,0,0,302.24,482.3Zm-.05,6.13a2.75,2.75,0,1,1,2.4-2.73A2.59,2.59,0,0,1,302.19,488.43Z" transform="translate(-214.63 -355.68)"/><path class="cls-1" d="M287.62,435.16a.45.45,0,1,0,.45.45A.45.45,0,0,0,287.62,435.16Z" transform="translate(-214.63 -355.68)"/><path class="cls-1" d="M289.48,437.77a.36.36,0,1,0-.37-.36A.36.36,0,0,0,289.48,437.77Z" transform="translate(-214.63 -355.68)"/><path class="cls-1" d="M298.88,438.88a.51.51,0,1,0-.51-.51A.51.51,0,0,0,298.88,438.88Z" transform="translate(-214.63 -355.68)"/><path class="cls-1" d="M296.85,437.4a.38.38,0,1,0,.38-.38A.38.38,0,0,0,296.85,437.4Z" transform="translate(-214.63 -355.68)"/><path class="cls-1" d="M300.44,437.22a.37.37,0,1,0-.37-.36A.37.37,0,0,0,300.44,437.22Z" transform="translate(-214.63 -355.68)"/><path class="cls-1" d="M304.14,439.37a.53.53,0,1,0-.53-.53A.53.53,0,0,0,304.14,439.37Z" transform="translate(-214.63 -355.68)"/><path class="cls-1" d="M303.79,441.7a.45.45,0,1,0-.45-.45A.45.45,0,0,0,303.79,441.7Z" transform="translate(-214.63 -355.68)"/><path class="cls-1" d="M307.34,440.53a.47.47,0,0,0,.46.46.46.46,0,0,0,.45-.46.45.45,0,0,0-.45-.45A.46.46,0,0,0,307.34,440.53Z" transform="translate(-214.63 -355.68)"/><path class="cls-1" d="M310,441a.57.57,0,0,0-.57.57.58.58,0,0,0,.57.57.57.57,0,0,0,.57-.57A.56.56,0,0,0,310,441Z" transform="translate(-214.63 -355.68)"/><path class="cls-1" d="M312.8,440.09a.44.44,0,0,0-.44.44.44.44,0,0,0,.44.44.43.43,0,0,0,.44-.44A.44.44,0,0,0,312.8,440.09Z" transform="translate(-214.63 -355.68)"/><path class="cls-1" d="M314.27,441.7a.61.61,0,1,0,.6.6A.6.6,0,0,0,314.27,441.7Z" transform="translate(-214.63 -355.68)"/><path class="cls-1" d="M285.28,436.72a.35.35,0,0,0-.34.35.34.34,0,0,0,.68,0A.35.35,0,0,0,285.28,436.72Z" transform="translate(-214.63 -355.68)"/><path class="cls-1" d="M283,434.35a.45.45,0,1,0,.44.45A.45.45,0,0,0,283,434.35Z" transform="translate(-214.63 -355.68)"/><circle class="cls-1" cx="71.69" cy="82.71" r="0.32"/><path class="cls-1" d="M291.33,438.5a.36.36,0,0,0,.71,0,.36.36,0,1,0-.71,0Z" transform="translate(-214.63 -355.68)"/><path class="cls-1" d="M356.84,413.25a.72.72,0,0,0,.29.06.68.68,0,0,0,.61-.38l11.53-24.44a.67.67,0,1,0-1.21-.57l-11.54,24.43A.68.68,0,0,0,356.84,413.25Z" transform="translate(-214.63 -355.68)"/><path class="cls-1" d="M352.66,412.36a.67.67,0,0,0,.24,0,.68.68,0,0,0,.63-.42l9.8-25.19a.68.68,0,0,0-1.26-.49l-9.8,25.19A.68.68,0,0,0,352.66,412.36Z" transform="translate(-214.63 -355.68)"/><path class="cls-1" d="M360.49,415.37a.63.63,0,0,0,.33.09.66.66,0,0,0,.58-.34l13.27-23.54a.67.67,0,0,0-.26-.92.66.66,0,0,0-.91.26l-13.27,23.54A.66.66,0,0,0,360.49,415.37Z" transform="translate(-214.63 -355.68)"/><path class="cls-1" d="M299.81,452.62a30.87,30.87,0,0,0,6-5.29,9.8,9.8,0,0,0,.66-1,2.24,2.24,0,0,0,.8.79,2.67,2.67,0,0,0,1.12.33h0a.22.22,0,0,0,.22-.22v-.15a.24.24,0,0,0-.16-.22,2.91,2.91,0,0,1-1.44-1.15,2.74,2.74,0,0,1-.57-1.25.22.22,0,0,0-.16-.22.51.51,0,0,0-.42,0,.31.31,0,0,0-.15.22.28.28,0,0,0,0,.09,3.88,3.88,0,0,0,.18.6,17.31,17.31,0,0,1-6.89,2.61c-4,.7-6.37-3.3-6.81-4.11a3,3,0,0,0,.16-1.18.25.25,0,0,0-.23-.1.23.23,0,0,0-.18.17,2.86,2.86,0,0,1-.76,1.37,3.76,3.76,0,0,1-1.79.57.26.26,0,0,0-.18.13.25.25,0,0,0,0,.22l.08.11a.21.21,0,0,0,.18.09h0a5.12,5.12,0,0,0,1.86-.37l.09-.06c.11,1.62.59,5,2.61,6.92a5.2,5.2,0,0,0,3.57,1.68A4.91,4.91,0,0,0,299.81,452.62Zm-2.39-3.78a3.87,3.87,0,0,0,.48,0l.52,0,.4-.06-.45,1.53c-.09,0-.65-.14-1.33-.31C297.12,449.74,297.28,449.27,297.42,448.84Zm-1.75-.51a5.83,5.83,0,0,0,1.15.41l-.37,1.11-1.14-.29C295.36,449.35,295.51,448.85,295.67,448.33Zm-1.57,1.5a10.31,10.31,0,0,1-2-4.9v-.07h0a9,9,0,0,0,3,3.14l-.48,1.66a.17.17,0,0,0,0,.07.45.45,0,0,0,.16.35,29.74,29.74,0,0,0,3.78,1h.1a.74.74,0,0,0,.42-.26c.05-.08.3-.82.71-2.18a23.91,23.91,0,0,0,5.34-2c-1.25,1.43-3.92,4.29-5.7,4.88A4.55,4.55,0,0,1,294.1,449.83Z" transform="translate(-214.63 -355.68)"/><path class="cls-1" d="M286,430.74a7.17,7.17,0,0,0,3.42,1.35c.39.07.79.14,1.2.24a5.94,5.94,0,0,1,2.66,1.68l.19.19a.48.48,0,0,0,.26.09.24.24,0,0,0,.16-.05.26.26,0,0,0,.1-.29v0a1.49,1.49,0,0,0,0-.36,4.74,4.74,0,0,1,.06-.73c.06-.47.16-1.18.25-2.52a5.62,5.62,0,0,0-1.26-4.3,4.68,4.68,0,0,0-3.62-1.3,5.28,5.28,0,0,0-4.94,3.49C284.5,428.25,284.37,429.47,286,430.74Zm4-5.15a3.49,3.49,0,0,1,2.53,1.26,5.21,5.21,0,0,1,1,3.53,20.12,20.12,0,0,0-.1,2.82h0a4.78,4.78,0,0,0-2.8-1.75l-.35,0c-1.59-.21-3-.39-4.09-1.39s-1.17-1.58-1.18-1.71A5.39,5.39,0,0,1,290.05,425.59Z" transform="translate(-214.63 -355.68)"/><path class="cls-1" d="M290.4,430.93a2.4,2.4,0,1,0-2.51-2.3A2.41,2.41,0,0,0,290.4,430.93Zm-.58-4.05a.55.55,0,0,1,.72.21c.08.23-.11.51-.43.62a.53.53,0,0,1-.72-.21C289.31,427.27,289.5,427,289.82,426.88Zm-.9.82a.28.28,0,0,1,.28.26.27.27,0,0,1-.25.28.27.27,0,0,1,0-.54Z" transform="translate(-214.63 -355.68)"/><path class="cls-1" d="M304.09,435.52a3.72,3.72,0,0,1,3.61.75,7.84,7.84,0,0,0,4.33,1.36,6,6,0,0,0,1.26-.13,6.06,6.06,0,0,0,3.39-2.18.14.14,0,0,0,0-.06,6.36,6.36,0,0,0-.54-2.47c-.62-1.33-3.34-3.74-7.39-2.21a8.19,8.19,0,0,0-3.95,3,5.34,5.34,0,0,0-.87,1.82.11.11,0,0,0,0,.11A.14.14,0,0,0,304.09,435.52Zm6.77-4.53a4.85,4.85,0,0,1,4.3,1.79,5,5,0,0,1,.91,1.92c-.06.23-.65,1.9-3.5,2.17a7.9,7.9,0,0,1-4.88-1.51,4.28,4.28,0,0,0-1.52-.71h-.44a4.43,4.43,0,0,0-1.09.12A7.59,7.59,0,0,1,310.86,431Z" transform="translate(-214.63 -355.68)"/><path class="cls-1" d="M311.73,436.12a2.41,2.41,0,1,0-2.66-2.12A2.41,2.41,0,0,0,311.73,436.12Zm-.86-4c.31-.14.64-.07.73.16s-.07.51-.38.65a.56.56,0,0,1-.74-.16A.55.55,0,0,1,310.87,432.12ZM310,433a.27.27,0,0,1,.3.23.28.28,0,0,1-.24.3.27.27,0,0,1-.29-.24A.27.27,0,0,1,310,433Z" transform="translate(-214.63 -355.68)"/></svg>