<svg id="Слой_1" data-name="Слой 1" xmlns="http://www.w3.org/2000/svg" viewBox="0 0 11.84 11.84"><defs><style>.cls-1{fill:#55848f;}</style></defs><path class="cls-1" d="M304,419.05v0a.21.21,0,0,0-.05-.13h0v0l-.1-.1h0l-5.49-3.81a.44.44,0,0,0-.49,0l-5.49,3.81h0a.47.47,0,0,0-.1.1v0h0a.21.21,0,0,0-.05.13,0,0,0,0,0,0,0v5.54a2.11,2.11,0,0,0,2.11,2.12h7.61a2.11,2.11,0,0,0,2.11-2.12v-5.54Zm-5.92-3.24,4.73,3.27-4.73,2.9-4.72-2.9Zm3.81,10.05h-7.61a1.27,1.27,0,0,1-1.27-1.27v-4.74l4.85,3a.46.46,0,0,0,.22.06.46.46,0,0,0,.23-.06l4.85-3v4.74A1.27,1.27,0,0,1,301.88,425.86Z" transform="translate(-292.16 -414.87)"/></svg>