<svg id="Слой_1" data-name="Слой 1" xmlns="http://www.w3.org/2000/svg" viewBox="0 0 13.05 13.05"><defs><style>.cls-1{fill:#fff;}</style></defs><path class="cls-1" d="M297.13,420.77l-.17-.11-5.12-5.13a.71.71,0,0,1-.15-.95.7.7,0,0,1,1.12-.09l1.13,1.12,4.06,4.06.13.13a.75.75,0,0,1,.09-.15l5.12-5.12a.73.73,0,0,1,.94-.17.72.72,0,0,1,.19,1.05l-.15.15-5.08,5.09-.14.11a.44.44,0,0,0,.11.12l5.14,5.15a.73.73,0,0,1,.15,1,.71.71,0,0,1-1,.17c-.06,0-.11-.1-.17-.15l-5.11-5.12-.09-.11-.13.13L292.85,427a.75.75,0,0,1-.78.24.72.72,0,0,1-.34-1.13l.15-.16,5.08-5.08Z" transform="translate(-291.57 -414.26)"/></svg>