<svg xmlns="http://www.w3.org/2000/svg" width="813.08" height="440.94" viewBox="0 0 813.08 440.94">
	<style type="text/css">
		.st0{fill:#54858f;}
	</style>
	<path class="st0" d="M359.83,30.08C359.59,30.46 359.35,30.83 359.11,31.21C360.48,32.39 361.91,33.5 363.2,34.76C387.46,58.45 411.67,82.2 435.98,105.84C454.14,123.51 472.48,140.98 490.6,158.68C493.19,161.21 495.26,161.58 498.38,159.85C512.4,152.07 526.52,144.46 540.61,136.81C552.81,130.18 565.03,123.56 577.25,116.96C592.83,108.56 608.41,100.16 624.01,91.79C637.98,84.3 652,76.89 665.97,69.4C680.12,61.83 694.24,54.21 708.36,46.61C718.05,41.39 727.72,36.17 737.4,30.94C737.33,30.66 737.25,30.37 737.17,30.08ZM552.14,387.94C620.77,276.13 688.62,165.58 757,54.17C755.06,54.85 753.96,55.09 753.01,55.61C737.57,63.87 722.14,72.16 706.73,80.47C690.6,89.16 674.52,97.92 658.37,106.56C639.21,116.81 619.96,126.88 600.83,137.17C584.85,145.78 569.03,154.67 553.06,163.3C539.4,170.68 525.62,177.86 511.9,185.14C509.25,186.54 508.38,188.39 509.16,191.63C510.98,199.15 512.09,206.84 513.77,214.4C517.23,229.98 520.98,245.5 524.39,261.09C527,273 529.19,285.01 531.73,296.94C534.66,310.78 537.71,324.6 540.82,338.41C544.41,354.4 548.11,370.36 552.14,387.94M475.21,0.05C525.54,0.05 575.86,0.05 626.19,0.05C683.1,0.05 740.02,0.13 796.93,0C809.14,-0.02 815.86,11.39 811.98,19.78C809.66,24.8 806.53,29.46 803.62,34.19C793.01,51.46 782.36,68.7 771.7,85.93C759.83,105.12 747.91,124.28 736.08,143.48C726.91,158.37 717.87,173.34 708.71,188.23C695.87,209.11 682.88,229.9 670.1,250.81C657.75,271.03 645.68,291.43 633.29,311.62C621.73,330.45 609.8,349.05 598.24,367.88C585.84,388.07 573.78,408.46 561.35,428.63C558.58,433.13 556.01,437.56 550.34,440.12C543.64,443.15 532.87,437.35 531.52,430.01C529.28,417.87 526,405.93 523.38,393.85C520.02,378.41 516.96,362.9 513.62,347.45C511.07,335.7 508.16,324.03 505.62,312.28C502.18,296.35 499.02,280.36 495.56,264.43C493.08,253.01 490.27,241.66 487.69,230.26C484.73,217.25 482.1,204.16 478.81,191.24C477.99,188 475.7,184.75 473.25,182.36C430.23,140.39 387.07,98.56 343.95,56.69C333.41,46.44 322.92,36.14 312.37,25.9C307.78,21.43 305.17,16.45 307.77,9.91C310.27,3.64 315.43,0.08 322.73,0.08C369.72,0.03 416.72,0.05 463.71,0.05C467.54,0.05 471.38,0.05 475.21,0.05"/>
	<path class="st0" d="M180.9,322.18C167.28,320.24 153.54,318.82 140.05,316.19C127.62,313.76 115.31,310.44 103.19,306.72C95.13,304.25 92.6,297.22 94.76,290.28C96.4,285 104.38,280.02 111.31,282.15C123.27,285.84 135.67,288.29 148.03,290.45C160.61,292.65 173.35,294 186.04,295.47C193.17,296.29 197.88,301.77 197.74,309.76C197.64,315.74 191.79,321.43 185.46,321.67C183.97,321.73 182.47,321.68 180.97,321.68C180.95,321.85 180.93,322.02 180.9,322.18"/>
	<path class="st0" d="M266.64,315.6C262.54,315.59 254.58,308.55 253.67,303.26C252.97,299.16 258.25,291.22 262.98,289.86C270.81,287.6 278.84,286.02 286.58,283.5C298.27,279.69 309.99,275.81 321.31,271.02C330.15,267.29 336.78,270.95 339.62,276.96C343.49,285.12 340.58,291.71 332.08,294.94C319.18,299.85 306.32,304.93 293.21,309.22C284.89,311.95 276.14,313.37 266.64,315.6"/>
	<path class="st0" d="M376.32,244.71C377.39,242.84 378.33,238.76 380.84,237.23C392.88,229.86 400.49,217.93 411.01,209.07C414.91,205.78 419.13,202.8 423.47,200.12C426.92,197.98 434.77,202.09 437.5,207.05C441.21,213.8 440.17,216.99 435.48,223.58C427.81,234.36 416.66,241.06 407.03,249.52C403.72,252.42 399.9,254.74 396.44,257.48C392.38,260.69 387.8,260.03 383.92,258.13C379.37,255.89 376.92,251.48 376.32,244.71"/>
	<path class="st0" d="M68.79,273.87C69.81,279.01 66.05,282.6 62.03,285.23C58.18,287.74 53.47,287.34 49.4,284.86C35.61,276.45 21.84,268.04 8.18,259.42C5.68,257.85 3.08,255.7 1.74,253.17C-1.44,247.18 -0.07,240.86 4.38,237.27C10.59,232.28 14.66,232.43 21.67,236.98C34.53,245.3 47.56,253.37 60.56,261.49C64.97,264.25 69.01,267.17 68.79,273.87"/>
</svg>