<svg xmlns="http://www.w3.org/2000/svg" width="216.51" height="254.93" viewBox="0 0 216.51 254.93">
	<style type="text/css">
		.st0{fill:#1a150f;}
	</style>
	<path class="st0" d="M194.9,20.36L22.01,20.36C23.09,22.31 23.79,23.77 24.65,25.13C47.42,61.34 70.28,97.48 92.87,133.8C94.92,137.1 96.17,141.45 96.22,145.34C96.52,170.88 96.38,196.44 96.4,221.99C96.4,223.35 96.6,224.71 96.77,226.76C103.47,221.12 109.46,215.91 115.64,210.92C119.01,208.19 120.42,204.91 120.39,200.58C120.28,181.5 120.27,162.41 120.46,143.33C120.49,140.68 121.28,137.67 122.68,135.44C145.63,98.76 168.74,62.18 191.8,25.57C192.75,24.07 193.62,22.52 194.9,20.36M85.45,254.93C78.55,250.97 76.36,245.01 76.44,237.14C76.75,208.09 76.64,179.04 76.45,149.99C76.44,147.04 75.52,143.72 73.96,141.23C52.1,106.19 30,71.3 8.13,36.27C5.17,31.53 2.5,26.43 0.79,21.14C-2.52,10.92 4.96,0.75 15.71,0.03C16.54,-0.02 17.37,0 18.2,0C78.3,0 138.39,0 198.49,0.01C207.66,0.01 214.59,4.7 216.21,12.85C216.88,16.22 216.39,20.21 215.18,23.46C213.41,28.23 210.79,32.74 208.07,37.08C186.33,71.8 164.44,106.43 142.76,141.19C141.21,143.68 140.31,146.99 140.27,149.93C140.05,167.53 140.17,185.13 140.16,202.72C140.15,211.14 137.19,218.54 130.89,223.97C118.62,234.54 105.94,244.63 93.42,254.93Z"/>
</svg>