<svg id="Слой_1" data-name="Слой 1" xmlns="http://www.w3.org/2000/svg" viewBox="0 0 19.97 34.34"><defs><style>.cls-1{fill:#54858f;}</style></defs><path class="cls-1" d="M308.06,420.79V406.71a3.21,3.21,0,0,0-3.05-3.1H291.09a3.23,3.23,0,0,0-3,3v28.24a3.19,3.19,0,0,0,3.13,3.09h13.61a3.2,3.2,0,0,0,3.23-3.23Zm-16.73-15.93h13.53c1.39,0,2.06.87,1.93,2.48h-17.4A1.89,1.89,0,0,1,291.33,404.86Zm15.45,3.76v23.05H289.36V408.62Zm-.07,26.79a1.68,1.68,0,0,1-1.82,1.28H291.41a1.83,1.83,0,0,1-2.07-2.05V433h17.51C306.81,433.79,306.83,434.61,306.71,435.41Z" transform="translate(-288.09 -403.61)"/><path class="cls-1" d="M296.27,435.44h3.63a.6.6,0,0,0,.67-.63c0-.38-.26-.61-.69-.61h-3.59c-.46,0-.72.23-.71.63S295.84,435.44,296.27,435.44Z" transform="translate(-288.09 -403.61)"/><path class="cls-1" d="M296.22,406.73a.6.6,0,0,0,.6-.62.62.62,0,1,0-.6.62Z" transform="translate(-288.09 -403.61)"/><path class="cls-1" d="M298,406.73a.61.61,0,0,0,.68-.59.63.63,0,1,0-.68.59Z" transform="translate(-288.09 -403.61)"/><path class="cls-1" d="M300,406.73a.6.6,0,0,0,.62-.61.61.61,0,0,0-.63-.64.62.62,0,0,0-.62.65A.61.61,0,0,0,300,406.73Z" transform="translate(-288.09 -403.61)"/></svg>