<svg id="Слой_1" data-name="Слой 1" xmlns="http://www.w3.org/2000/svg" viewBox="0 0 9.93 13.9"><defs><style>.cls-1{fill:#9eaec6;}</style></defs><path class="cls-1" d="M303,416.36a2.47,2.47,0,0,0-2.52-2.53h-4.87a2.48,2.48,0,0,0-2.54,2.54v8.8a2.48,2.48,0,0,0,2.55,2.55h4.89a2.48,2.48,0,0,0,2.49-2.49v-8.87Zm-1,4.42v4.42a1.48,1.48,0,0,1-1.54,1.53h-4.84a1.49,1.49,0,0,1-1.57-1.56v-8.84a1.48,1.48,0,0,1,1.12-1.46,1.58,1.58,0,0,1,.38-.05h5a1.49,1.49,0,0,1,1.49,1.49Z" transform="translate(-293.11 -413.83)"/><path class="cls-1" d="M299.52,415.81h-2.89a.5.5,0,0,0-.54.49.5.5,0,0,0,.55.5h2.88a.5.5,0,0,0,.54-.49A.51.51,0,0,0,299.52,415.81Z" transform="translate(-293.11 -413.83)"/></svg>