<svg id="Слой_1" data-name="Слой 1" xmlns="http://www.w3.org/2000/svg" viewBox="0 0 61.54 61.38"><defs><style>.cls-1{fill:#54858f;}</style></defs><path class="cls-1" d="M291.52,401.2l5.49,5.52a1.41,1.41,0,0,0,2.09,0q2.85-2.83,5.67-5.71a1.37,1.37,0,0,0,.21-1.72,1.35,1.35,0,0,0-1.58-.57,2.3,2.3,0,0,0-.77.51c-.86.84-1.71,1.71-2.56,2.56-.15.15-.32.28-.61.55V392a5,5,0,0,0-.07-.94,1.29,1.29,0,0,0-1.33-1,1.28,1.28,0,0,0-1.31,1,5.61,5.61,0,0,0-.07,1v10.1l-.18.07c-1-1-2-2-3-3a2.21,2.21,0,0,0-.75-.54,1.36,1.36,0,0,0-1.6.52,1.42,1.42,0,0,0,.1,1.68A2.61,2.61,0,0,0,291.52,401.2Z" transform="translate(-267.31 -390.09)"/><path class="cls-1" d="M326.93,414.3H302c-1.28,0-1.73-.48-1.79-1.48a1.32,1.32,0,0,0-1.54-1.37c-.83.09-1.28.74-1.19,1.71a4.52,4.52,0,0,0,4.41,3.91H326V420H271.9c-.44,0-.89.06-1.34,0-.16,0-.43-.21-.44-.33,0-.84,0-1.69,0-2.6h22.71a1.46,1.46,0,0,0,1.65-1.37,1.42,1.42,0,0,0-1.61-1.4H268.94c-1.12,0-1.61.47-1.62,1.58q0,2.69,0,5.37a1.37,1.37,0,0,0,1.54,1.54c.47,0,.93,0,1.43,0,.07.6.13,1.11.18,1.62.33,3.31.65,6.63,1,9.94.38,3.83.82,7.65,1.14,11.48a5.78,5.78,0,0,0,6,5.63h30.42a1.39,1.39,0,0,0,1.54-1.34c0-.89-.55-1.43-1.55-1.43H278.83c-2,0-3.21-1-3.42-2.84-.34-3.15-.64-6.31-1-9.47q-.52-5.14-1-10.28c-.11-1.06-.2-2.12-.3-3.21H323c0,.24,0,.43,0,.63q-.28,2.87-.58,5.74l-1,10.21c-.22,2.2-.42,4.4-.68,6.6a2.76,2.76,0,0,1-2.67,2.53c-1,.06-2,.07-2.95.09a1.36,1.36,0,0,0-1.5,1.36,1.39,1.39,0,0,0,1.53,1.42c.89,0,1.79,0,2.69,0a5.61,5.61,0,0,0,5.55-4.46c.25-1.29.32-2.62.45-3.93.35-3.38.68-6.76,1-10.14.3-2.94.58-5.88.9-8.81.14-1.31.17-1.3,1.45-1.33s1.67-.51,1.67-1.68c0-1.64,0-3.27,0-4.91S328.44,414.3,326.93,414.3Z" transform="translate(-267.31 -390.09)"/><path class="cls-1" d="M278.79,442.89a1.38,1.38,0,0,0,2.76.08c0-1.48,0-3,0-4.43a1.38,1.38,0,0,0-2.75,0c0,.72,0,1.44,0,2.15h0v1.07C278.79,442.17,278.78,442.53,278.79,442.89Z" transform="translate(-267.31 -390.09)"/><path class="cls-1" d="M288.7,438.6a1.38,1.38,0,0,0-2.76-.07c0,1.48,0,3,0,4.43a1.34,1.34,0,0,0,1.42,1.31,1.33,1.33,0,0,0,1.34-1.38c0-.71,0-1.43,0-2.14S288.71,439.32,288.7,438.6Z" transform="translate(-267.31 -390.09)"/><path class="cls-1" d="M300.28,442.9A1.38,1.38,0,0,0,303,443c0-1.48,0-2.95,0-4.43a1.33,1.33,0,0,0-1.42-1.3,1.31,1.31,0,0,0-1.33,1.37c0,.72,0,1.43,0,2.15S300.27,442.18,300.28,442.9Z" transform="translate(-267.31 -390.09)"/><path class="cls-1" d="M310.19,438.59a1.32,1.32,0,0,0-1.35-1.36,1.33,1.33,0,0,0-1.41,1.31c0,1.48,0,2.95,0,4.43a1.38,1.38,0,0,0,2.76-.08c0-.7,0-1.39,0-2.08S310.21,439.33,310.19,438.59Z" transform="translate(-267.31 -390.09)"/><path class="cls-1" d="M281.55,428.5a1.38,1.38,0,0,0-2.76.07c0,.72,0,1.43,0,2.15h0v1.07c0,.36,0,.72,0,1.08a1.36,1.36,0,0,0,1.34,1.39,1.38,1.38,0,0,0,1.42-1.33C281.59,431.46,281.59,430,281.55,428.5Z" transform="translate(-267.31 -390.09)"/><path class="cls-1" d="M288.7,430.74c0-.72,0-1.43,0-2.15a1.38,1.38,0,0,0-2.76-.1c0,1.49,0,3,0,4.49a1.38,1.38,0,0,0,2.75-.09C288.72,432.17,288.7,431.46,288.7,430.74Z" transform="translate(-267.31 -390.09)"/><path class="cls-1" d="M303,428.5a1.33,1.33,0,0,0-1.42-1.3,1.31,1.31,0,0,0-1.33,1.38c0,.71,0,1.43,0,2.15s0,1.43,0,2.15a1.36,1.36,0,0,0,1.34,1.38,1.38,1.38,0,0,0,1.41-1.33C303.08,431.45,303.08,430,303,428.5Z" transform="translate(-267.31 -390.09)"/><path class="cls-1" d="M310.19,430.76c0-.72,0-1.44,0-2.15a1.33,1.33,0,0,0-1.3-1.41,1.35,1.35,0,0,0-1.46,1.33c0,1.46,0,2.91,0,4.37a1.38,1.38,0,1,0,2.76-.06C310.21,432.15,310.19,431.45,310.19,430.76Z" transform="translate(-267.31 -390.09)"/><path class="cls-1" d="M295.87,428.61a1.38,1.38,0,1,0-2.76,0c0,.7,0,1.39,0,2.08s0,1.44,0,2.15a1.38,1.38,0,1,0,2.75,0Q295.9,430.73,295.87,428.61Z" transform="translate(-267.31 -390.09)"/><path class="cls-1" d="M317.37,428.74a.57.57,0,0,0,0-.13A1.34,1.34,0,0,0,316,427.2a1.31,1.31,0,0,0-1.37,1.41c0,1.41,0,2.82,0,4.22a1.38,1.38,0,1,0,2.75,0c0-.69,0-1.38,0-2.08h0Z" transform="translate(-267.31 -390.09)"/><path class="cls-1" d="M295.87,438.64a1.38,1.38,0,1,0-2.75,0c0,1.41,0,2.82,0,4.22a1.33,1.33,0,0,0,1.37,1.42,1.34,1.34,0,0,0,1.38-1.41c0-.69,0-1.38,0-2.08h0C295.88,440.07,295.9,439.35,295.87,438.64Z" transform="translate(-267.31 -390.09)"/><path class="cls-1" d="M314.61,442.83a1.32,1.32,0,0,0,1.35,1.44,1.35,1.35,0,0,0,1.4-1.46c0-.69,0-1.38,0-2.07s0-1.39,0-2.08a1.38,1.38,0,1,0-2.76,0C314.58,440.06,314.58,441.45,314.61,442.83Z" transform="translate(-267.31 -390.09)"/></svg>