<svg id="Слой_1" data-name="Слой 1" xmlns="http://www.w3.org/2000/svg" viewBox="0 0 20.74 19.99"><defs><style>.cls-1{fill:#9eabc7;}</style></defs><path class="cls-1" d="M308.31,417.3A8.23,8.23,0,0,0,305.9,413a7.94,7.94,0,0,0-4.42-2.12c-1-.13-4-.11-5.4-.1h-.63a7.45,7.45,0,0,0-5.69,2.58,8.21,8.21,0,0,0-1.93,6.43,8.08,8.08,0,0,0,5.43,6.68c.18.07.22.12.22.31,0,.58,0,1.16,0,1.73V430c0,.2,0,.74.47.82h.13a1.15,1.15,0,0,0,.72-.26l1.81-1.65,1.67-1.52a1,1,0,0,1,.59-.23c.55,0,1.12,0,1.68,0h.35a7.3,7.3,0,0,0,4.23-1.32,7.74,7.74,0,0,0,2.82-3.68A8.76,8.76,0,0,0,308.31,417.3Zm-3.63,7a5.52,5.52,0,0,1-3.63,1.34h-1.22c-.46,0-.94,0-1.41,0a1.45,1.45,0,0,0-.85.33c-.64.56-1.27,1.15-1.89,1.72l-.73.68-.06.05v-2.16c0-.74-.14-.85-.79-1.07a6.74,6.74,0,0,1-4.86-5.18,7,7,0,0,1,1.13-5.1,5.85,5.85,0,0,1,3.82-2.62,6.26,6.26,0,0,1,1.07-.12h3.15c.73,0,1.45,0,2.18,0a6.77,6.77,0,0,1,4.11,1.49,6.34,6.34,0,0,1,2.24,3.69A7,7,0,0,1,304.68,424.34Z" transform="translate(-287.75 -410.79)"/><path class="cls-1" d="M297.6,413.54a3.58,3.58,0,0,0-3,3.62v.25h1.47l.05-.22,0-.14c0-.1,0-.19.05-.28a2,2,0,0,1,1.3-1.55,1.78,1.78,0,0,1,1.46.09,1.93,1.93,0,0,1,1,1.22,2.24,2.24,0,0,1-.25,1.76,1.81,1.81,0,0,1-1.23.84c-.21,0-.43.06-.64.09l-.3,0-.23,0v2.93h1.57v-1.52a3.71,3.71,0,0,0,2.68-4.33A3.65,3.65,0,0,0,297.6,413.54Z" transform="translate(-287.75 -410.79)"/><rect class="cls-1" x="9.56" y="12.36" width="1.55" height="1.54"/></svg>