<svg id="Слой_1" data-name="Слой 1" xmlns="http://www.w3.org/2000/svg" viewBox="0 0 12.09 12.09"><defs><style>.cls-1{fill:#54858f;}</style></defs><path class="cls-1" d="M304.08,419.48h0a.43.43,0,0,0-.39.46v.4a5.18,5.18,0,1,1-7.34-4.71v2.12a.44.44,0,0,0,.87,0v-3a.43.43,0,0,0-.43-.43h-3.89a.43.43,0,0,0,0,.86h2.5a6,6,0,1,0,9.16,5.18v-.47A.45.45,0,0,0,304.08,419.48Z" transform="translate(-292.46 -414.31)"/><path class="cls-1" d="M298.5,415.17a5.17,5.17,0,0,1,4.6,2.79.43.43,0,0,0,.38.23.46.46,0,0,0,.2-.05.43.43,0,0,0,.18-.58,6,6,0,0,0-5.36-3.25.43.43,0,0,0,0,.86Z" transform="translate(-292.46 -414.31)"/></svg>