<svg id="Слой_1" data-name="Слой 1" xmlns="http://www.w3.org/2000/svg" viewBox="0 0 39.07 39.07"><defs><style>.cls-1{fill:#e73636;}.cls-2{fill:#fff;}</style></defs><circle class="cls-1" cx="19.54" cy="19.54" r="19.54"/><path class="cls-2" d="M282.11,420.51h3.75V422h-3.75Z" transform="translate(-278.54 -401.24)"/><path class="cls-2" d="M286.84,425.47l3.78-4a4.46,4.46,0,0,0,1.52-2.84,1.54,1.54,0,0,0-.39-1.12,1.46,1.46,0,0,0-1.1-.41c-1,0-1.64.66-1.8,2h-1.7a3.64,3.64,0,0,1,1-2.55,3.46,3.46,0,0,1,2.52-.89,3.42,3.42,0,0,1,2.42.81,2.76,2.76,0,0,1,.89,2.14,3.5,3.5,0,0,1-.5,1.78,8.3,8.3,0,0,1-1.46,1.8l-2.23,2.17h4.26v1.45h-7.24Z" transform="translate(-278.54 -401.24)"/><path class="cls-2" d="M298.85,426a3.7,3.7,0,0,1-2.59-.83,3.11,3.11,0,0,1-1-2.18H297a2.06,2.06,0,0,0,.52,1.17,1.82,1.82,0,0,0,1.3.39,1.68,1.68,0,0,0,1.33-.54,2.24,2.24,0,0,0,.47-1.49,2.09,2.09,0,0,0-.48-1.44,1.7,1.7,0,0,0-1.32-.53,2.62,2.62,0,0,0-2.09.87h-.95l.08-5.57H302v1.47h-4.65V420a2.68,2.68,0,0,1,2.15-.84,2.94,2.94,0,0,1,2.23.91,3.45,3.45,0,0,1,.85,2.45,3.26,3.26,0,0,1-1,2.52A3.8,3.8,0,0,1,298.85,426Z" transform="translate(-278.54 -401.24)"/><path class="cls-2" d="M307.46,419.86a2.38,2.38,0,0,1-1.73.7,2.34,2.34,0,0,1-1.74-.7,2.31,2.31,0,0,1-.7-1.73,2.33,2.33,0,0,1,.71-1.73,2.51,2.51,0,0,1,3.46,0,2.32,2.32,0,0,1,.7,1.73A2.37,2.37,0,0,1,307.46,419.86Zm3.65-4.06h1.18l-6.44,10h-1.19ZM305,419.09a1,1,0,0,0,.79.33,1,1,0,0,0,.78-.33,1.8,1.8,0,0,0,0-1.93,1,1,0,0,0-.78-.34,1,1,0,0,0-.79.34,1.75,1.75,0,0,0,0,1.93Zm6.26,6.86a2.43,2.43,0,1,1,0-4.86,2.43,2.43,0,0,1,1.73.68,2.32,2.32,0,0,1,.7,1.73,2.39,2.39,0,0,1-2.45,2.45Zm-.77-1.47a1.1,1.1,0,0,0,1.57,0,1.78,1.78,0,0,0,0-1.93,1,1,0,0,0-.77-.34,1,1,0,0,0-.79.34,1.75,1.75,0,0,0,0,1.93Z" transform="translate(-278.54 -401.24)"/></svg>