<svg id="Слой_1" data-name="Слой 1" xmlns="http://www.w3.org/2000/svg" viewBox="0 0 39.07 39.07"><defs><style>.cls-1{fill:#e73636;}.cls-2{fill:#fff;}</style></defs><circle class="cls-1" cx="19.54" cy="19.54" r="19.54"/><path class="cls-2" d="M282.11,420.51h3.75V422h-3.75Z" transform="translate(-278.54 -401.24)"/><path class="cls-2" d="M289.12,417.64,287,419.09v-1.64l2.32-1.65H291v10h-1.88Z" transform="translate(-278.54 -401.24)"/><path class="cls-2" d="M297.39,426a3.84,3.84,0,0,1-3.05-1.33,5.27,5.27,0,0,1-1.15-3.56v-.5a5.29,5.29,0,0,1,1.15-3.58,4.19,4.19,0,0,1,6.1,0,5.19,5.19,0,0,1,1.14,3.54V421a5.4,5.4,0,0,1-1.12,3.6A3.82,3.82,0,0,1,297.39,426Zm.05-1.49c1.52,0,2.28-1.15,2.28-3.44v-.49a4.51,4.51,0,0,0-.6-2.52,1.91,1.91,0,0,0-1.71-.9,2,2,0,0,0-1.74.88,4.49,4.49,0,0,0-.6,2.55v.51a4.36,4.36,0,0,0,.61,2.55A2,2,0,0,0,297.44,424.46Z" transform="translate(-278.54 -401.24)"/><path class="cls-2" d="M306.87,419.86a2.5,2.5,0,0,1-3.47,0,2.31,2.31,0,0,1-.7-1.73,2.33,2.33,0,0,1,.71-1.73,2.51,2.51,0,0,1,3.46,0,2.32,2.32,0,0,1,.7,1.73A2.37,2.37,0,0,1,306.87,419.86Zm3.66-4.06h1.17l-6.44,10h-1.19Zm-6.17,3.29a1,1,0,0,0,.79.33,1,1,0,0,0,.78-.33,1.8,1.8,0,0,0,0-1.93,1.08,1.08,0,0,0-1.57,0,1.75,1.75,0,0,0,0,1.93Zm6.26,6.86a2.39,2.39,0,0,1-2.42-2.43,2.41,2.41,0,0,1,2.44-2.43,2.42,2.42,0,0,1,1.73.68,2.32,2.32,0,0,1,.7,1.73,2.39,2.39,0,0,1-2.45,2.45Zm-.77-1.47a1,1,0,0,0,.79.33,1,1,0,0,0,.78-.33,1.8,1.8,0,0,0,0-1.93,1,1,0,0,0-.78-.34,1,1,0,0,0-.79.34,1.75,1.75,0,0,0,0,1.93Z" transform="translate(-278.54 -401.24)"/></svg>