<svg id="Слой_1" data-name="Слой 1" xmlns="http://www.w3.org/2000/svg" viewBox="0 0 39.07 39.07"><defs><style>.cls-1{fill:#e73636;}.cls-2{fill:#fff;}</style></defs><circle class="cls-1" cx="19.54" cy="19.54" r="19.54"/><path class="cls-2" d="M283.1,420.51h3.76V422H283.1Z" transform="translate(-278.54 -401.24)"/><path class="cls-2" d="M290.12,417.64,288,419.09v-1.64l2.33-1.65H292v10h-1.87Z" transform="translate(-278.54 -401.24)"/><path class="cls-2" d="M297.55,426a3.7,3.7,0,0,1-2.59-.83,3.15,3.15,0,0,1-1-2.18h1.74a2.06,2.06,0,0,0,.52,1.17,1.82,1.82,0,0,0,1.3.39,1.68,1.68,0,0,0,1.33-.54,2.18,2.18,0,0,0,.47-1.49,2.09,2.09,0,0,0-.48-1.44,1.7,1.7,0,0,0-1.32-.53,2.63,2.63,0,0,0-2.09.87h-.95l.08-5.57h6.08v1.47H296V420a2.68,2.68,0,0,1,2.15-.84,2.94,2.94,0,0,1,2.23.91,3.45,3.45,0,0,1,.85,2.45,3.26,3.26,0,0,1-1,2.52A3.8,3.8,0,0,1,297.55,426Z" transform="translate(-278.54 -401.24)"/><path class="cls-2" d="M306.16,419.86a2.5,2.5,0,0,1-3.47,0,2.31,2.31,0,0,1-.7-1.73,2.33,2.33,0,0,1,.71-1.73,2.51,2.51,0,0,1,3.46,0,2.32,2.32,0,0,1,.7,1.73A2.37,2.37,0,0,1,306.16,419.86Zm3.66-4.06H311l-6.44,10h-1.19Zm-6.17,3.29a1,1,0,0,0,.79.33,1,1,0,0,0,.78-.33,1.8,1.8,0,0,0,0-1.93,1.08,1.08,0,0,0-1.57,0,1.75,1.75,0,0,0,0,1.93Zm6.26,6.86a2.39,2.39,0,0,1-2.42-2.43,2.41,2.41,0,0,1,2.44-2.43,2.42,2.42,0,0,1,1.73.68,2.32,2.32,0,0,1,.7,1.73,2.39,2.39,0,0,1-2.45,2.45Zm-.77-1.47a1,1,0,0,0,.79.33,1,1,0,0,0,.78-.33,1.48,1.48,0,0,0,.28-1,1.41,1.41,0,0,0-.29-1,1,1,0,0,0-.77-.34,1,1,0,0,0-.79.34,1.75,1.75,0,0,0,0,1.93Z" transform="translate(-278.54 -401.24)"/></svg>