<svg id="Слой_1" data-name="Слой 1" xmlns="http://www.w3.org/2000/svg" viewBox="0 0 39.07 39.07"><defs><style>.cls-1{fill:#e73636;}.cls-2{fill:#fff;}</style></defs><circle class="cls-1" cx="19.54" cy="19.54" r="19.54"/><path class="cls-2" d="M285.68,420.51h3.75V422h-3.75Z" transform="translate(-278.54 -401.24)"/><path class="cls-2" d="M294.35,426a3.68,3.68,0,0,1-2.59-.83,3.07,3.07,0,0,1-1-2.18h1.73a2.06,2.06,0,0,0,.53,1.17,1.79,1.79,0,0,0,1.29.39,1.67,1.67,0,0,0,1.33-.54,2.19,2.19,0,0,0,.48-1.49,2.09,2.09,0,0,0-.48-1.44,1.74,1.74,0,0,0-1.33-.53,2.61,2.61,0,0,0-2.08.87h-.95l.08-5.57h6.07v1.47h-4.64l0,2.71a2.72,2.72,0,0,1,2.16-.84,3,3,0,0,1,2.23.91,3.49,3.49,0,0,1,.85,2.45,3.26,3.26,0,0,1-1,2.52A3.8,3.8,0,0,1,294.35,426Z" transform="translate(-278.54 -401.24)"/><path class="cls-2" d="M303,419.86a2.4,2.4,0,0,1-1.74.7,2.43,2.43,0,0,1-1.72-4.16,2.42,2.42,0,0,1,4.16,1.71A2.41,2.41,0,0,1,303,419.86Zm3.65-4.06h1.18l-6.44,10h-1.19Zm-6.17,3.29a1,1,0,0,0,.8.33,1,1,0,0,0,.78-.33,1.78,1.78,0,0,0,0-1.93,1,1,0,0,0-.77-.34,1,1,0,0,0-.8.34,1.8,1.8,0,0,0,0,1.93Zm6.27,6.86a2.32,2.32,0,0,1-1.73-.7,2.35,2.35,0,0,1-.69-1.73,2.32,2.32,0,0,1,.7-1.73,2.37,2.37,0,0,1,1.73-.7,2.42,2.42,0,0,1,1.73.68,2.33,2.33,0,0,1,.71,1.73,2.37,2.37,0,0,1-.7,1.75A2.41,2.41,0,0,1,306.71,426Zm-.78-1.47a1,1,0,0,0,.79.33,1,1,0,0,0,.79-.33,1.53,1.53,0,0,0,.28-1,1.47,1.47,0,0,0-.29-1,1,1,0,0,0-.78-.34,1,1,0,0,0-.79.34,1.8,1.8,0,0,0,0,1.93Z" transform="translate(-278.54 -401.24)"/></svg>