<svg id="Слой_1" data-name="Слой 1" xmlns="http://www.w3.org/2000/svg" viewBox="0 0 83.88 45.49"><defs><style>.cls-1{fill:#54858f;}</style></defs><path class="cls-1" d="M338.28,397.92H289.36a1.55,1.55,0,0,0-1.54,1,1.42,1.42,0,0,0,.47,1.65l3.26,3.18q6.68,6.48,13.34,13a2.07,2.07,0,0,1,.57.92c.34,1.33.61,2.68.92,4,.26,1.18.55,2.35.81,3.53.36,1.64.68,3.29,1,4.93.26,1.22.56,2.42.82,3.63.35,1.6.66,3.2,1,4.79.27,1.25.61,2.48.84,3.73a1.56,1.56,0,0,0,1.94,1,2.59,2.59,0,0,0,1.14-1.18c1.28-2.08,2.52-4.19,3.8-6.27s2.43-3.86,3.62-5.8,2.52-4.19,3.8-6.28,2.65-4.3,4-6.45l2.82-4.62q1.83-3,3.68-5.94,1.65-2.65,3.29-5.33a14.75,14.75,0,0,0,.86-1.49A1.53,1.53,0,0,0,338.28,397.92Zm-30.8,16.49a.57.57,0,0,1-.8-.12c-1.87-1.83-3.76-3.63-5.64-5.45-2.51-2.44-5-4.89-7.51-7.34-.13-.13-.28-.24-.42-.36l.08-.12h38.92l0,.09-3,1.62-4.37,2.35-4.33,2.31-4.82,2.6-3.78,2ZM313,437.94c-.42-1.81-.8-3.46-1.17-5.11-.32-1.42-.64-2.85-.94-4.28-.26-1.23-.49-2.47-.76-3.7-.35-1.6-.74-3.21-1.09-4.81-.17-.78-.29-1.58-.48-2.35a.51.51,0,0,1,.29-.67c1.41-.75,2.83-1.49,4.24-2.25,1.65-.89,3.28-1.81,4.93-2.7,2-1.06,4-2.1,5.94-3.16l5-2.69,4.78-2.56a2.48,2.48,0,0,1,.41-.15Z" transform="translate(-256.07 -397.92)"/><path class="cls-1" d="M275.26,428.4c-1.31-.15-2.62-.29-3.92-.52a30.13,30.13,0,0,1-3.79-.85,1.47,1.47,0,0,0-1.71.84,1.27,1.27,0,0,0,.87,1.69,38.51,38.51,0,0,0,3.8,1c1.4.27,2.81.42,4.22.62v-.06h.46a1.35,1.35,0,0,0,.06-2.7Z" transform="translate(-256.07 -397.92)"/><path class="cls-1" d="M289.21,425.88c-1.16.49-2.37.89-3.58,1.29-.8.26-1.63.42-2.43.65a1.62,1.62,0,0,0-1,1.38,1.93,1.93,0,0,0,1.33,1.28c1-.23,1.89-.38,2.74-.66,1.36-.44,2.68-1,4-1.47a1.24,1.24,0,0,0,.78-1.86A1.35,1.35,0,0,0,289.21,425.88Z" transform="translate(-256.07 -397.92)"/><path class="cls-1" d="M299.75,418.56a10.72,10.72,0,0,0-1.28.93c-1.09.91-1.87,2.14-3.12,2.9-.25.16-.35.58-.46.77a1.54,1.54,0,0,0,.78,1.39,1.15,1.15,0,0,0,1.29-.07c.36-.28.76-.52,1.1-.82A16.51,16.51,0,0,0,301,421c.49-.68.59-1,.21-1.7C300.92,418.77,300.11,418.34,299.75,418.56Z" transform="translate(-256.07 -397.92)"/><path class="cls-1" d="M262.31,424.9c-1.34-.84-2.68-1.67-4-2.53a1.25,1.25,0,0,0-1.78,0,1.29,1.29,0,0,0-.28,1.64,1.87,1.87,0,0,0,.67.64c1.41.89,2.83,1.76,4.25,2.63a1.22,1.22,0,0,0,1.31,0c.41-.27.8-.64.69-1.17A1.34,1.34,0,0,0,262.31,424.9Z" transform="translate(-256.07 -397.92)"/></svg>