<svg id="Слой_1" data-name="Слой 1" xmlns="http://www.w3.org/2000/svg" viewBox="0 0 16.83 10"><defs><style>.cls-1{fill:#55848e;}</style></defs><path class="cls-1" d="M303.57,420.69c-.19.31-.27.47,0,.82.11.15,2.47,2.39,2.82,3.48.16.52-.11.79-.63.79h-1.85c-.7,0-.9-.56-2.15-1.81-1.1-1.06-1.56-1.19-1.84-1.19-.58,0-.48.19-.48,2.28,0,.45-.14.72-1.31.72a7.19,7.19,0,0,1-5.62-3.37c-2.28-3.2-2.91-5.62-2.91-6.11,0-.28.11-.52.63-.52h1.84c.48,0,.65.2.84.71.9,2.63,2.41,4.92,3,4.92.23,0,.34-.11.34-.7V418c-.07-1.25-.73-1.35-.73-1.79a.44.44,0,0,1,.47-.42h2.89c.39,0,.52.21.52.67v3.65c0,.39.18.53.29.53s.43-.14.86-.57a15.38,15.38,0,0,0,2.27-3.76.78.78,0,0,1,.8-.52h1.84c.55,0,.67.28.55.67C305.82,417.53,303.57,420.69,303.57,420.69Z" transform="translate(-289.6 -415.78)"/></svg>