<svg id="Слой_1" data-name="Слой 1" xmlns="http://www.w3.org/2000/svg" viewBox="0 0 10.5 10.5"><defs><style>.cls-1{fill:#56858f;}</style></defs><path class="cls-1" d="M303.32,420.73a5.25,5.25,0,0,1-5.25,5.2h0a5.15,5.15,0,0,1-2.49-.63l-2.76.73.74-2.7a5.21,5.21,0,0,1,4.51-7.8,5.17,5.17,0,0,1,3.68,1.52A5.24,5.24,0,0,1,303.32,420.73Zm-.87,0a4.35,4.35,0,1,0-8,2.3l.1.17-.43,1.59,1.63-.43.16.1a4.33,4.33,0,0,0,2.2.6A4.37,4.37,0,0,0,302.45,420.73ZM300.69,422a1.17,1.17,0,0,1-.07.62,1.34,1.34,0,0,1-.88.62,2.58,2.58,0,0,1-1.56-.32,5.72,5.72,0,0,1-2.22-2,2.48,2.48,0,0,1-.53-1.34,1.47,1.47,0,0,1,.45-1.09.48.48,0,0,1,.35-.16h.25c.08,0,.18,0,.29.23s.37.9.4,1a.26.26,0,0,1,0,.23c-.25.5-.51.48-.38.71a3.61,3.61,0,0,0,1.77,1.55c.13.06.21.05.28,0a5.69,5.69,0,0,0,.41-.51c.09-.13.18-.11.3-.06s.75.35.88.42A.63.63,0,0,1,300.69,422Z" transform="translate(-292.82 -415.53)"/></svg>